<?xml version="1.0" standalone="no"?>
<!DOCTYPE svg PUBLIC "-//W3C//DTD SVG 20010904//EN"
 "http://www.w3.org/TR/2001/REC-SVG-20010904/DTD/svg10.dtd">
<svg version="1.0" xmlns="http://www.w3.org/2000/svg"
 width="500.000000pt" height="500.000000pt" viewBox="0 0 500.000000 500.000000"
 preserveAspectRatio="xMidYMid meet">
<metadata>
Created by potrace 1.14, written by Peter Selinger 2001-2017
</metadata>
<g transform="translate(0.000000,500.000000) scale(0.100000,-0.100000)"
fill="#000000" stroke="none">
<path d="M16 4984 c-3 -9 -6 -25 -6 -37 0 -18 2 -19 10 -7 7 11 12 12 18 4 15
-23 55 -10 73 24 l19 32 -54 0 c-40 0 -55 -4 -60 -16z"/>
<path d="M228 4983 c-47 -56 -91 -116 -82 -110 20 12 116 127 107 127 -6 0
-17 -8 -25 -17z"/>
<path d="M950 4997 c0 -24 193 -237 215 -237 43 0 5 56 -91 135 -40 33 -79 70
-85 83 -10 18 -39 32 -39 19z"/>
<path d="M1310 4963 c0 -42 7 -40 20 6 7 24 6 31 -6 31 -10 0 -14 -12 -14 -37z"/>
<path d="M2598 4975 c-3 -14 -2 -28 2 -30 4 -3 10 9 12 25 5 36 -8 40 -14 5z"/>
<path d="M2728 4953 c-54 -75 -54 -78 -20 -58 17 10 29 22 27 25 -2 4 5 21 16
39 31 52 15 47 -23 -6z"/>
<path d="M3090 4981 c0 -19 2 -19 48 -4 63 21 64 23 4 23 -45 0 -52 -3 -52
-19z"/>
<path d="M3260 4990 c-13 -8 -13 -11 1 -25 19 -20 60 -12 85 16 17 18 16 19
-27 19 -24 0 -51 -5 -59 -10z"/>
<path d="M3440 4985 c-43 -23 2 -30 47 -6 l38 20 -30 0 c-16 0 -41 -6 -55 -14z"/>
<path d="M3612 4984 c-18 -12 -20 -19 -12 -35 14 -25 18 -24 65 16 l40 35 -35
0 c-20 0 -46 -7 -58 -16z"/>
<path d="M3751 4986 c-19 -23 4 -28 24 -6 15 17 16 20 3 20 -9 0 -21 -6 -27
-14z"/>
<path d="M3807 4950 c-16 -28 -27 -55 -25 -60 2 -5 23 9 47 30 25 22 40 40 34
40 -6 0 -10 7 -9 16 3 35 -20 22 -47 -26z"/>
<path d="M4041 4983 c0 -10 4 -27 9 -38 7 -16 9 -13 9 18 1 20 -3 37 -9 37 -5
0 -10 -8 -9 -17z"/>
<path d="M4080 4985 c0 -8 5 -15 10 -15 6 0 10 7 10 15 0 8 -4 15 -10 15 -5 0
-10 -7 -10 -15z"/>
<path d="M4245 4980 c10 -11 19 -20 20 -20 2 0 5 9 8 20 4 16 0 20 -20 20 -25
0 -26 0 -8 -20z"/>
<path d="M4708 4993 c6 -2 18 -2 25 0 6 3 1 5 -13 5 -14 0 -19 -2 -12 -5z"/>
<path d="M4776 4985 c-5 -15 11 -24 97 -56 34 -12 39 -11 58 7 l20 21 -75 21
c-88 26 -92 26 -100 7z"/>
<path d="M4948 4993 c6 -2 18 -2 25 0 6 3 1 5 -13 5 -14 0 -19 -2 -12 -5z"/>
<path d="M4550 4986 c0 -7 72 -47 77 -42 3 2 -13 14 -36 26 -23 11 -41 19 -41
16z"/>
<path d="M4210 4959 c0 -31 24 -58 33 -36 3 7 -4 24 -14 38 l-19 24 0 -26z"/>
<path d="M3151 4954 c-33 -14 -33 -15 -16 -34 27 -30 28 -29 63 43 5 10 -9 8
-47 -9z"/>
<path d="M4295 4949 c-9 -28 1 -36 14 -10 7 12 7 22 2 26 -5 3 -13 -4 -16 -16z"/>
<path d="M2435 4950 l-30 -8 30 0 c17 0 39 3 50 8 l20 9 -20 -1 c-11 0 -33 -4
-50 -8z"/>
<path d="M3401 4944 c0 -11 3 -14 6 -6 3 7 2 16 -1 19 -3 4 -6 -2 -5 -13z"/>
<path d="M4560 4950 c0 -13 28 -25 38 -16 3 4 0 11 -8 16 -20 13 -30 12 -30 0z"/>
<path d="M297 4944 c-11 -11 -8 -47 6 -71 46 -82 55 -102 49 -109 -4 -4 -1 -4
6 0 7 4 12 2 12 -7 0 -14 6 -16 55 -20 14 -1 25 -6 25 -11 0 -6 5 -5 11 1 9 9
6 21 -9 47 -16 28 -19 42 -12 60 10 28 -5 39 -31 23 -25 -15 -46 -2 -77 48
-15 25 -31 42 -35 39z"/>
<path d="M3470 4940 c-8 -5 -11 -12 -7 -16 4 -4 15 0 24 9 18 18 8 23 -17 7z"/>
<path d="M3557 4944 c-4 -4 -7 -23 -7 -42 0 -34 0 -35 20 -17 11 10 20 21 20
25 0 14 -26 41 -33 34z"/>
<path d="M4007 4944 c-4 -4 -7 -14 -7 -23 0 -11 3 -12 11 -4 6 6 10 16 7 23
-2 6 -7 8 -11 4z"/>
<path d="M4145 4929 c16 -50 36 -92 42 -86 7 8 -25 94 -39 103 -7 4 -8 -2 -3
-17z"/>
<path d="M4414 4931 c21 -23 26 -26 26 -11 0 5 -10 15 -22 21 -23 12 -23 12
-4 -10z"/>
<path d="M3353 4920 c-11 -16 -10 -18 2 -14 8 4 15 12 15 20 0 19 -3 18 -17
-6z"/>
<path d="M4107 4933 c-10 -10 -8 -53 4 -97 10 -36 11 -37 25 -18 12 17 11 27
-2 71 -15 53 -17 55 -27 44z"/>
<path d="M4740 4930 c0 -5 28 -24 61 -41 44 -22 65 -27 72 -20 15 15 3 23 -66
49 -68 25 -67 25 -67 12z"/>
<path d="M4977 4922 c-22 -24 -21 -29 3 -35 17 -4 20 0 20 24 0 34 -2 35 -23
11z"/>
<path d="M2318 4923 c7 -3 16 -2 19 1 4 3 -2 6 -13 5 -11 0 -14 -3 -6 -6z"/>
<path d="M2914 4923 c-12 -2 -30 -14 -40 -25 -19 -21 -19 -21 5 -8 16 8 49 11
98 8 40 -3 73 -1 73 3 0 14 -97 30 -136 22z"/>
<path d="M3300 4920 c0 -5 7 -7 15 -4 8 4 15 8 15 10 0 2 -7 4 -15 4 -8 0 -15
-4 -15 -10z"/>
<path d="M4505 4920 c3 -5 8 -10 11 -10 2 0 4 5 4 10 0 6 -5 10 -11 10 -5 0
-7 -4 -4 -10z"/>
<path d="M4643 4916 c-15 -17 -4 -30 12 -16 18 15 44 1 51 -26 5 -21 25 -34
64 -40 8 -2 20 -10 26 -18 15 -22 30 -20 30 3 0 11 -3 19 -6 19 -19 -2 -30 3
-25 11 3 5 -9 21 -27 34 -51 38 -65 43 -43 17 21 -24 11 -21 -37 12 -31 21
-30 21 -45 4z"/>
<path d="M1395 4863 c-36 -43 -47 -52 -42 -33 l6 25 -18 -24 c-20 -26 -58 -23
-47 4 3 8 1 17 -3 20 -11 6 -20 -51 -10 -67 10 -16 -8 -38 -32 -38 -16 0 -18
-5 -13 -27 4 -16 8 -30 10 -32 13 -15 184 152 201 197 17 47 2 39 -52 -25z"/>
<path d="M3412 4908 c-7 -7 -12 -18 -12 -25 0 -11 4 -11 20 -1 11 7 20 18 20
25 0 16 -12 17 -28 1z"/>
<path d="M3500 4900 c-9 -16 -8 -18 5 -14 8 4 15 12 15 20 0 20 -7 17 -20 -6z"/>
<path d="M3250 4898 c0 -7 5 -20 10 -28 12 -19 35 2 27 24 -7 19 -37 21 -37 4z"/>
<path d="M3665 4890 c-18 -20 -16 -38 3 -26 8 5 24 46 18 46 -2 0 -11 -9 -21
-20z"/>
<path d="M3726 4891 c-10 -11 -16 -26 -14 -33 3 -8 12 0 22 20 19 37 17 40 -8
13z"/>
<path d="M4326 4885 c4 -8 10 -15 15 -15 4 0 6 7 3 15 -4 8 -10 15 -15 15 -4
0 -6 -7 -3 -15z"/>
<path d="M4472 4891 c2 -7 7 -12 11 -12 12 1 9 15 -3 20 -7 2 -11 -2 -8 -8z"/>
<path d="M2590 4880 c0 -5 5 -10 11 -10 5 0 7 5 4 10 -3 6 -8 10 -11 10 -2 0
-4 -4 -4 -10z"/>
<path d="M3200 4880 c-12 -8 -11 -10 8 -10 12 0 22 5 22 10 0 13 -11 13 -30 0z"/>
<path d="M3352 4868 c6 -18 28 -21 28 -4 0 9 -7 16 -16 16 -9 0 -14 -5 -12
-12z"/>
<path d="M3585 4860 c-10 -11 -16 -22 -13 -25 3 -3 13 4 23 15 10 11 16 22 13
25 -3 3 -13 -4 -23 -15z"/>
<path d="M3830 4861 c-12 -24 -14 -59 -1 -45 10 10 24 64 17 64 -3 0 -10 -9
-16 -19z"/>
<path d="M4280 4870 c-11 -7 -8 -16 14 -50 15 -22 31 -38 36 -35 16 10 12 29
-13 62 -16 22 -27 29 -37 23z"/>
<path d="M4378 4855 c-3 -14 -1 -28 3 -31 5 -3 9 2 9 11 0 8 7 18 16 22 13 5
13 7 2 14 -20 13 -25 11 -30 -16z"/>
<path d="M4580 4871 c0 -10 30 -24 37 -17 3 3 2 9 -2 15 -8 13 -35 15 -35 2z"/>
<path d="M2495 4860 c-18 -8 -17 -9 7 -9 15 -1 30 4 33 9 7 12 -12 12 -40 0z"/>
<path d="M3746 4854 c-9 -24 -7 -28 9 -14 17 14 20 30 6 30 -5 0 -12 -7 -15
-16z"/>
<path d="M3998 4856 c-37 -27 -42 -100 -9 -120 13 -9 34 61 29 101 -3 28 -5
30 -20 19z"/>
<path d="M4910 4855 c-10 -13 -6 -18 31 -34 24 -11 47 -17 51 -15 19 12 5 36
-27 50 -42 17 -40 17 -55 -1z"/>
<path d="M2721 4829 c-34 -37 -35 -67 -4 -93 40 -34 97 -116 81 -116 -7 0 25
-18 71 -40 90 -43 151 -83 246 -163 44 -37 51 -41 27 -15 l-33 35 31 26 c42
36 87 47 146 36 68 -13 67 -3 -1 11 -73 15 -139 -1 -163 -39 -9 -14 -17 -27
-18 -29 -1 -2 -34 22 -74 52 -40 31 -75 56 -79 56 -3 0 -13 4 -21 10 -12 7
-12 12 4 29 22 24 11 28 -14 6 -15 -14 -22 -13 -61 4 -24 11 -41 20 -37 20 6
1 -13 25 -80 102 l-33 38 20 45 c22 51 21 56 -8 25z"/>
<path d="M3315 4840 c3 -5 11 -10 16 -10 6 0 7 5 4 10 -3 6 -11 10 -16 10 -6
0 -7 -4 -4 -10z"/>
<path d="M3490 4838 c-94 -41 -240 -112 -236 -115 2 -2 40 11 85 28 44 18 82
30 84 28 1 -2 23 -29 48 -59 67 -82 83 -110 70 -123 -6 -6 -11 -16 -11 -21 0
-6 5 -4 10 4 5 8 10 10 10 5 0 -6 -7 -20 -15 -33 -14 -20 -14 -24 2 -49 18
-26 18 -27 -2 -19 -16 6 -18 5 -7 -5 17 -18 15 -27 -5 -25 -20 1 -37 -52 -22
-70 7 -8 6 -14 -3 -17 -11 -4 -10 -6 0 -6 7 -1 10 -5 7 -11 -3 -5 -1 -10 5
-10 6 0 9 -4 6 -9 -4 -5 3 -7 14 -4 11 3 17 10 13 16 -3 6 -1 7 6 3 6 -4 19
-5 29 -2 15 5 17 20 16 133 -2 126 -16 262 -35 336 -10 40 -24 44 -69 25z"/>
<path d="M3606 4831 c-17 -18 -22 -41 -8 -41 4 0 15 11 25 25 20 28 7 42 -17
16z"/>
<path d="M2386 4831 c-3 -4 6 -6 19 -3 14 2 25 6 25 8 0 8 -39 4 -44 -5z"/>
<path d="M4240 4835 c0 -17 44 -88 47 -78 3 7 -5 29 -17 48 -20 33 -30 42 -30
30z"/>
<path d="M4546 4831 c-7 -10 28 -43 37 -35 8 8 -11 44 -23 44 -5 0 -11 -4 -14
-9z"/>
<path d="M4082 4810 c0 -14 2 -19 5 -12 2 6 2 18 0 25 -3 6 -5 1 -5 -13z"/>
<path d="M2318 4813 c7 -3 16 -2 19 1 4 3 -2 6 -13 5 -11 0 -14 -3 -6 -6z"/>
<path d="M3741 4793 c-25 -19 -29 -28 -19 -34 23 -15 33 -10 46 23 6 17 10 33
9 34 -1 2 -17 -9 -36 -23z"/>
<path d="M4836 4805 c-3 -10 16 -36 54 -73 40 -39 60 -66 60 -82 0 -13 3 -21
6 -17 4 3 13 -1 21 -9 9 -8 18 -13 21 -10 8 9 -26 54 -83 111 -44 43 -52 55
-41 65 11 8 22 2 50 -27 33 -36 36 -37 52 -21 17 16 14 19 -36 42 -52 24 -55
24 -74 8 -18 -16 -19 -16 -13 0 3 10 2 20 -2 23 -5 3 -11 -2 -15 -10z"/>
<path d="M3637 4792 c-21 -23 -21 -32 -3 -32 19 0 36 23 27 38 -6 9 -12 8 -24
-6z"/>
<path d="M4432 4795 l-24 -13 33 -36 c31 -36 55 -43 28 -9 -12 16 -11 16 8 -1
22 -18 22 -18 21 5 -2 30 -17 51 -31 42 -5 -3 -7 -1 -3 5 10 17 -6 20 -32 7z"/>
<path d="M2578 4793 c7 -3 16 -2 19 1 4 3 -2 6 -13 5 -11 0 -14 -3 -6 -6z"/>
<path d="M2801 4784 c0 -11 3 -14 6 -6 3 7 2 16 -1 19 -3 4 -6 -2 -5 -13z"/>
<path d="M3069 4774 c35 -8 66 -12 69 -10 7 7 -71 26 -103 25 -20 -1 -8 -6 34
-15z"/>
<path d="M3214 4774 c-18 -14 -18 -14 6 -3 31 14 36 19 24 19 -6 0 -19 -7 -30
-16z"/>
<path d="M3790 4770 c-7 -12 -8 -26 -3 -31 12 -12 33 25 23 41 -6 9 -11 7 -20
-10z"/>
<path d="M4052 4770 c0 -14 2 -19 5 -12 2 6 2 18 0 25 -3 6 -5 1 -5 -13z"/>
<path d="M4143 4783 c-15 -5 -18 -53 -4 -53 5 0 14 14 20 30 10 30 8 33 -16
23z"/>
<path d="M4216 4772 c-4 -12 -3 -29 2 -38 9 -15 10 -15 16 4 4 12 3 29 -2 38
-9 15 -10 15 -16 -4z"/>
<path d="M4610 4780 c-8 -5 -10 -10 -5 -10 6 0 17 5 25 10 8 5 11 10 5 10 -5
0 -17 -5 -25 -10z"/>
<path d="M4741 4781 c-12 -8 -13 -12 -1 -26 12 -14 15 -14 28 -1 8 8 11 19 8
25 -9 13 -16 14 -35 2z"/>
<path d="M2772 4759 c-7 -11 -11 -23 -9 -25 7 -7 29 24 25 36 -2 6 -9 1 -16
-11z"/>
<path d="M2944 4748 c-16 -18 -44 -54 -62 -80 l-32 -47 30 15 c16 9 30 22 30
30 0 28 31 75 63 94 18 11 25 20 16 20 -8 0 -28 -15 -45 -32z"/>
<path d="M1498 4763 c7 -3 16 -2 19 1 4 3 -2 6 -13 5 -11 0 -14 -3 -6 -6z"/>
<path d="M1408 4743 c7 -3 16 -2 19 1 4 3 -2 6 -13 5 -11 0 -14 -3 -6 -6z"/>
<path d="M4383 4743 c4 -3 2 -12 -5 -20 -9 -11 -7 -18 7 -31 13 -13 19 -14 22
-4 3 6 9 9 15 6 6 -4 9 -1 6 7 -3 8 -14 13 -24 11 -15 -2 -16 -1 -5 6 15 10 7
32 -11 32 -6 0 -8 -3 -5 -7z"/>
<path d="M4676 4733 c-4 -9 0 -23 8 -31 12 -13 18 -13 31 -2 14 12 14 15 -1
31 -21 23 -30 24 -38 2z"/>
<path d="M4825 4740 c-3 -6 -3 -15 1 -22 4 -7 3 -8 -4 -4 -7 4 -12 2 -12 -3 0
-15 22 -14 43 2 16 11 16 13 -2 24 -13 8 -22 9 -26 3z"/>
<path d="M0 4726 c0 -9 5 -16 10 -16 6 0 10 4 10 9 0 6 -4 13 -10 16 -5 3 -10
-1 -10 -9z"/>
<path d="M3610 4721 c0 -6 15 -7 34 -4 34 5 35 5 38 -33 4 -47 20 -54 35 -14
6 16 18 30 27 30 15 0 14 -4 -3 -38 -19 -38 -19 -38 1 -51 24 -15 21 -17 36
36 9 31 18 43 35 45 12 2 -19 11 -69 21 -104 19 -134 21 -134 8z"/>
<path d="M4048 4718 c-8 -23 4 -58 19 -58 10 0 13 6 9 16 -3 9 -6 24 -6 35 0
21 -16 26 -22 7z"/>
<path d="M4300 4720 c0 -5 5 -10 11 -10 5 0 7 5 4 10 -3 6 -8 10 -11 10 -2 0
-4 -4 -4 -10z"/>
<path d="M3950 4711 c0 -5 5 -13 10 -16 6 -3 10 -2 10 4 0 5 -4 13 -10 16 -5
3 -10 2 -10 -4z"/>
<path d="M4610 4705 c7 -9 15 -13 17 -11 7 7 -7 26 -19 26 -6 0 -6 -6 2 -15z"/>
<path d="M4248 4702 c-21 -4 -22 -16 -4 -57 l14 -30 11 30 c14 34 4 63 -21 57z"/>
<path d="M80 4690 c-8 -5 -30 -10 -47 -10 -18 0 -33 -5 -33 -11 0 -6 8 -9 19
-6 10 2 29 -4 42 -14 31 -24 57 -26 38 -3 -10 13 -10 17 2 25 10 6 11 9 1 9
-7 0 -10 5 -7 10 8 12 4 12 -15 0z"/>
<path d="M4550 4689 c-12 -8 -12 -12 -2 -16 10 -4 9 -8 -5 -18 -17 -13 -17
-14 1 -32 13 -13 20 -15 23 -5 3 6 14 12 26 12 16 0 18 3 8 9 -7 5 -9 10 -4
12 6 2 1 14 -11 26 -16 17 -25 20 -36 12z m22 -51 c-6 -6 -15 -8 -19 -4 -4 4
-1 11 7 16 19 12 27 3 12 -12z"/>
<path d="M3848 4683 c7 -3 16 -2 19 1 4 3 -2 6 -13 5 -11 0 -14 -3 -6 -6z"/>
<path d="M3911 4664 c31 -13 35 -19 32 -42 l-4 -27 15 25 c21 35 21 35 -23 48
-53 16 -63 14 -20 -4z"/>
<path d="M4331 4664 c0 -11 3 -14 6 -6 3 7 2 16 -1 19 -3 4 -6 -2 -5 -13z"/>
<path d="M4875 4671 c-10 -17 12 -21 25 -6 10 12 10 15 -3 15 -9 0 -18 -4 -22
-9z"/>
<path d="M4660 4659 c0 -5 5 -7 10 -4 6 3 10 8 10 11 0 2 -4 4 -10 4 -5 0 -10
-5 -10 -11z"/>
<path d="M3060 4651 c-33 -8 -19 -16 22 -12 10 1 18 -7 21 -21 l4 -23 2 23 c0
13 7 22 17 22 8 0 13 -4 10 -9 -3 -4 3 -16 13 -25 13 -12 21 -14 26 -6 4 6 -1
18 -11 26 -17 14 -14 15 31 9 39 -5 47 -4 38 5 -14 15 -125 21 -173 11z"/>
<path d="M4150 4652 c0 -22 13 -42 26 -42 20 0 11 44 -9 48 -10 2 -17 -1 -17
-6z"/>
<path d="M4438 4653 c-19 -5 -24 -18 -10 -27 4 -2 13 4 20 15 7 10 11 18 10
18 -2 -1 -11 -3 -20 -6z"/>
<path d="M3986 4637 c3 -8 -9 -44 -25 -79 -17 -36 -31 -69 -31 -75 0 -5 13
-19 30 -31 l29 -22 16 29 c9 19 15 57 15 100 0 58 3 69 15 65 9 -4 15 -20 15
-43 l1 -36 15 28 c8 15 20 27 27 28 12 0 -50 30 -90 43 -18 6 -22 4 -17 -7z"/>
<path d="M4792 4638 c-7 -9 -5 -19 8 -35 18 -22 18 -23 41 -4 20 16 21 21 10
35 -16 19 -45 21 -59 4z"/>
<path d="M2758 4623 c7 -3 16 -2 19 1 4 3 -2 6 -13 5 -11 0 -14 -3 -6 -6z"/>
<path d="M4386 4611 c4 -17 3 -21 -6 -16 -8 5 -11 2 -8 -9 1 -10 7 -18 12 -19
13 -3 17 34 5 52 -8 12 -8 10 -3 -8z"/>
<path d="M4930 4620 c8 -5 20 -10 25 -10 6 0 3 5 -5 10 -8 5 -19 10 -25 10 -5
0 -3 -5 5 -10z"/>
<path d="M4700 4616 c0 -2 7 -9 15 -16 12 -10 15 -10 15 4 0 9 -7 16 -15 16
-8 0 -15 -2 -15 -4z"/>
<path d="M3632 4580 c0 -14 2 -19 5 -12 2 6 2 18 0 25 -3 6 -5 1 -5 -13z"/>
<path d="M4110 4586 c0 -7 -13 -33 -30 -57 -24 -36 -30 -55 -30 -100 0 -87 19
-94 64 -22 20 31 36 65 36 74 0 47 -14 108 -26 113 -8 3 -14 -1 -14 -8z"/>
<path d="M4281 4591 c-19 -12 -6 -45 15 -37 8 3 12 2 9 -4 -3 -6 -1 -10 4 -10
6 0 11 5 11 11 0 5 4 7 10 4 6 -4 7 2 1 17 -9 25 -29 33 -50 19z"/>
<path d="M4460 4590 c-9 -6 -10 -10 -3 -10 6 0 15 5 18 10 8 12 4 12 -15 0z"/>
<path d="M3352 4574 c10 -10 20 -16 22 -13 3 3 -5 11 -17 18 -21 13 -21 12 -5
-5z"/>
<path d="M4641 4559 c-15 -25 -17 -36 -9 -46 9 -11 16 -9 36 9 14 13 21 16 17
8 -8 -13 -7 -13 8 -1 15 12 16 17 4 34 -21 32 -35 31 -56 -4z m39 5 c0 -8 -19
-13 -24 -6 -3 5 1 9 9 9 8 0 15 -2 15 -3z"/>
<path d="M3660 4569 c0 -5 5 -7 10 -4 6 3 10 8 10 11 0 2 -4 4 -10 4 -5 0 -10
-5 -10 -11z"/>
<path d="M3893 4545 c-6 -19 -7 -37 -3 -40 9 -6 26 62 18 70 -3 3 -9 -11 -15
-30z"/>
<path d="M4157 4572 c6 -4 15 -20 19 -36 7 -27 8 -28 20 -11 19 26 18 30 -11
43 -29 13 -46 16 -28 4z"/>
<path d="M4766 4573 c-11 -11 -6 -23 8 -23 8 0 17 4 20 9 7 10 -19 23 -28 14z"/>
<path d="M3690 4556 c0 -8 -6 -21 -14 -29 -13 -12 -10 -16 19 -30 33 -16 33
-16 43 12 9 25 7 30 -19 45 -25 15 -29 15 -29 2z"/>
<path d="M4536 4538 c3 -5 10 -6 15 -3 13 9 11 12 -6 12 -8 0 -12 -4 -9 -9z"/>
<path d="M1315 4530 c-13 -5 -14 -9 -5 -9 8 0 24 4 35 9 13 5 14 9 5 9 -8 0
-24 -4 -35 -9z"/>
<path d="M4892 4526 c13 -10 15 -15 6 -24 -7 -7 -17 -12 -24 -12 -6 0 -15 -7
-18 -16 -6 -15 -4 -15 11 -3 50 37 53 42 42 56 -6 7 -17 13 -23 13 -6 0 -3 -6
6 -14z"/>
<path d="M4218 4496 c-27 -33 -27 -36 -16 -91 l11 -57 19 23 c49 61 49 63 34
107 -8 22 -12 43 -9 46 4 3 2 6 -3 6 -5 0 -21 -15 -36 -34z"/>
<path d="M4400 4523 c1 -13 39 -79 41 -70 1 4 3 12 4 17 1 6 3 15 4 21 0 5 6
7 11 4 6 -4 7 -11 4 -17 -4 -7 -2 -8 4 -4 9 5 9 12 0 26 -11 17 -13 17 -25 2
-11 -15 -12 -15 -8 6 3 16 -1 22 -16 22 -10 0 -19 -3 -19 -7z"/>
<path d="M4800 4511 c0 -6 5 -13 10 -16 6 -3 10 1 10 9 0 9 -4 16 -10 16 -5 0
-10 -4 -10 -9z"/>
<path d="M1185 4490 c-13 -5 -14 -9 -5 -9 8 0 24 4 35 9 13 5 14 9 5 9 -8 0
-24 -4 -35 -9z"/>
<path d="M4297 4480 c4 -16 8 -18 20 -9 11 10 11 14 1 20 -21 14 -26 10 -21
-11z"/>
<path d="M4755 4480 c-3 -5 -3 -14 0 -20 3 -5 0 -7 -9 -4 -9 3 -19 -3 -26 -16
-13 -24 -4 -43 9 -21 5 7 13 11 18 8 12 -7 53 20 53 35 0 5 -7 7 -16 4 -8 -3
-12 -2 -9 3 3 5 1 12 -4 15 -5 4 -12 2 -16 -4z"/>
<path d="M403 4441 c0 -38 19 -62 32 -41 5 9 -20 80 -28 80 -2 0 -4 -18 -4
-39z"/>
<path d="M3643 4425 c0 -33 2 -45 4 -27 2 18 2 45 0 60 -2 15 -4 0 -4 -33z"/>
<path d="M3844 4466 c10 -8 16 -22 13 -30 -4 -9 -2 -18 2 -21 11 -6 23 23 15
36 -3 5 -15 14 -27 19 -21 11 -21 10 -3 -4z"/>
<path d="M4665 4470 c3 -5 8 -10 11 -10 2 0 4 5 4 10 0 6 -5 10 -11 10 -5 0
-7 -4 -4 -10z"/>
<path d="M1108 4463 c7 -3 16 -2 19 1 4 3 -2 6 -13 5 -11 0 -14 -3 -6 -6z"/>
<path d="M4354 4462 c3 -6 2 -13 -4 -17 -6 -4 -8 -11 -5 -16 3 -5 -1 -6 -9 -3
-20 8 -20 -1 0 -59 9 -26 20 -44 25 -41 5 3 7 10 4 15 -4 5 1 12 9 15 9 3 13
10 10 15 -3 5 2 9 11 9 8 0 18 7 21 15 4 8 11 12 18 8 6 -4 5 1 -3 11 -8 9
-20 15 -28 12 -8 -3 -12 -2 -9 3 3 5 -6 17 -20 26 -15 9 -24 12 -20 7z"/>
<path d="M4614 4452 c3 -6 2 -13 -4 -17 -5 -3 -10 -12 -10 -18 0 -8 3 -8 9 1
4 8 12 13 17 13 15 -2 10 22 -5 27 -8 3 -11 0 -7 -6z"/>
<path d="M4550 4441 c0 -5 5 -13 10 -16 6 -3 10 -2 10 4 0 5 -4 13 -10 16 -5
3 -10 2 -10 -4z"/>
<path d="M1008 4433 c7 -3 16 -2 19 1 4 3 -2 6 -13 5 -11 0 -14 -3 -6 -6z"/>
<path d="M3903 4423 c19 -21 23 -38 7 -28 -5 3 -10 4 -10 1 0 -3 13 -12 29
-20 24 -13 30 -13 34 -2 4 9 -10 25 -36 42 -30 19 -37 22 -24 7z"/>
<path d="M61 4313 c-6 -50 -20 -129 -31 -174 -10 -45 -16 -87 -13 -92 3 -6 1
-7 -5 -3 -20 12 -13 -23 8 -44 11 -11 20 -25 20 -31 0 -6 -9 -13 -20 -16 -15
-4 -20 -14 -20 -38 0 -29 3 -32 23 -27 20 5 21 4 8 -11 -12 -15 -12 -17 4 -10
15 5 17 3 12 -13 -7 -18 -6 -18 9 1 24 29 55 105 48 116 -3 6 0 17 7 25 12 15
2 66 -25 123 -6 13 -11 70 -11 126 0 114 14 145 64 145 14 0 32 4 40 9 9 6 -7
9 -46 8 l-60 -2 -12 -92z"/>
<path d="M4137 4371 c-33 -49 -33 -48 -4 -71 19 -16 24 -17 39 -4 16 15 16 51
-1 96 -6 18 -10 15 -34 -21z"/>
<path d="M109 4378 c-7 -21 -3 -51 7 -55 15 -6 44 -59 44 -80 0 -7 5 -13 10
-13 6 0 10 4 10 9 0 5 10 11 23 13 23 3 29 33 12 71 -6 15 2 13 46 -11 30 -16
64 -32 76 -36 20 -6 23 -4 21 17 -2 18 -12 30 -36 42 -48 23 -209 55 -213 43z"/>
<path d="M3288 4373 c-14 -2 -32 -10 -38 -18 -10 -12 -7 -12 19 -2 21 8 50 8
100 1 39 -5 71 -6 71 -2 0 13 -105 28 -152 21z"/>
<path d="M4257 4338 c-20 -23 -35 -49 -32 -58 2 -8 7 -27 11 -42 3 -16 8 -28
10 -28 11 0 73 77 74 91 0 9 -6 31 -13 48 l-13 31 -37 -42z"/>
<path d="M4486 4348 c18 -38 28 -46 38 -30 3 5 -8 22 -25 38 l-31 29 18 -37z"/>
<path d="M4685 4360 c-3 -5 -2 -10 4 -10 5 0 13 5 16 10 3 6 2 10 -4 10 -5 0
-13 -4 -16 -10z"/>
<path d="M4610 4350 c0 -3 6 -15 14 -25 13 -18 14 -17 14 6 0 15 -6 26 -14 26
-8 0 -14 -3 -14 -7z"/>
<path d="M4432 4333 c-6 -10 -22 -25 -36 -33 -29 -15 -31 -26 -15 -67 11 -27
11 -28 21 -6 6 12 19 23 29 26 30 8 45 51 26 77 -15 21 -16 21 -25 3z m18 -39
c0 -8 -19 -13 -24 -6 -3 5 1 9 9 9 8 0 15 -2 15 -3z"/>
<path d="M4786 4326 c3 -9 11 -16 16 -16 13 0 5 23 -10 28 -7 2 -10 -2 -6 -12z"/>
<path d="M2315 4281 c-44 -22 -89 -47 -100 -56 -11 -8 19 5 68 30 109 56 153
59 245 15 77 -36 86 -38 39 -6 -59 40 -78 48 -126 53 -39 4 -59 -2 -126 -36z"/>
<path d="M4554 4288 c3 -12 1 -15 -10 -11 -16 6 -19 -14 -5 -36 8 -12 12 -12
29 1 l20 14 -20 24 c-12 16 -18 18 -14 8z"/>
<path d="M3310 4280 c8 -5 20 -10 25 -10 6 0 3 5 -5 10 -8 5 -19 10 -25 10 -5
0 -3 -5 5 -10z"/>
<path d="M4080 4287 c0 -3 12 -12 26 -22 15 -9 23 -12 20 -6 -7 11 -46 35 -46
28z"/>
<path d="M2440 4225 c-24 -25 -50 -45 -58 -45 -7 0 -10 -5 -7 -11 4 -6 -2 -13
-14 -16 -13 -3 -21 -13 -21 -25 0 -15 -3 -18 -13 -10 -9 7 -23 2 -52 -19 -22
-16 -49 -33 -60 -39 -18 -10 -17 -10 5 -5 14 3 52 10 85 16 50 10 63 17 80 42
29 45 78 70 148 74 34 2 63 6 65 7 8 9 -14 38 -37 50 -61 31 -75 28 -121 -19z"/>
<path d="M4672 4250 c7 -11 15 -20 18 -20 3 0 6 9 6 20 0 13 -7 20 -18 20 -16
0 -16 -3 -6 -20z"/>
<path d="M4840 4263 c0 -13 29 -38 35 -31 3 3 -4 13 -15 23 -11 10 -20 13 -20
8z"/>
<path d="M3380 4250 c8 -5 20 -10 25 -10 6 0 3 5 -5 10 -8 5 -19 10 -25 10 -5
0 -3 -5 5 -10z"/>
<path d="M4186 4251 c-3 -5 1 -14 8 -20 12 -10 13 -8 9 8 -6 23 -9 25 -17 12z"/>
<path d="M1190 4230 c-8 -5 -10 -10 -5 -10 6 0 17 5 25 10 8 5 11 10 5 10 -5
0 -17 -5 -25 -10z"/>
<path d="M4308 4212 l-27 -27 40 3 c42 4 46 9 27 35 -12 15 -15 14 -40 -11z"/>
<path d="M4460 4209 c-19 -17 -26 -27 -16 -23 13 5 17 4 12 -4 -12 -20 11 -13
40 11 21 19 24 25 13 34 -11 8 -22 4 -49 -18z"/>
<path d="M1140 4210 c-8 -5 -10 -10 -5 -10 6 0 17 5 25 10 8 5 11 10 5 10 -5
0 -17 -5 -25 -10z"/>
<path d="M2660 4195 c13 -14 26 -25 28 -25 3 0 -5 11 -18 25 -13 14 -26 25
-28 25 -3 0 5 -11 18 -25z"/>
<path d="M3460 4216 c0 -2 7 -6 15 -10 8 -3 15 -1 15 4 0 6 -7 10 -15 10 -8 0
-15 -2 -15 -4z"/>
<path d="M165 4200 c-4 -6 -4 -23 0 -37 5 -20 3 -24 -9 -20 -22 9 -46 -2 -46
-20 0 -8 15 -42 32 -76 l33 -61 9 45 c8 39 10 41 16 19 3 -14 2 -28 -3 -31
-16 -11 45 -37 101 -45 37 -5 52 -3 52 5 0 7 -5 9 -10 6 -13 -8 -60 21 -60 36
0 8 4 8 13 1 16 -13 68 -10 63 4 -5 14 30 45 40 36 4 -4 -1 5 -11 21 -17 26
-17 27 1 27 22 1 75 29 55 30 -7 0 -11 6 -7 15 3 10 -6 20 -30 31 -29 14 -44
15 -82 7 -50 -11 -119 -7 -139 9 -7 6 -14 5 -18 -2z m62 -182 c-3 -8 -6 -5 -6
6 -1 11 2 17 5 13 3 -3 4 -12 1 -19z"/>
<path d="M2093 4150 c-48 -32 -101 -71 -118 -85 l-30 -26 30 18 c16 10 62 41
100 68 39 28 82 58 95 67 14 9 22 17 18 17 -4 1 -46 -26 -95 -59z"/>
<path d="M2263 4191 c33 -22 21 -36 -18 -21 -35 13 -35 13 -35 -8 0 -31 -45
-65 -75 -58 -16 4 -23 11 -19 18 4 7 3 8 -4 4 -7 -4 -12 -14 -12 -23 0 -10 -6
-14 -20 -10 -13 3 -37 -6 -65 -26 -64 -45 -235 -178 -235 -182 0 -2 56 22 124
54 67 31 159 68 204 82 58 17 82 29 86 43 2 10 9 15 15 11 6 -3 11 -2 11 4 0
15 77 89 98 94 14 4 13 5 -4 6 -11 0 -29 8 -40 16 -10 8 -23 14 -29 15 -5 0 3
-9 18 -19z"/>
<path d="M4595 4200 c-3 -6 -11 -8 -16 -5 -12 8 -11 -16 1 -35 9 -13 12 -13
21 3 6 9 15 15 21 11 6 -4 8 1 6 11 -4 22 -23 31 -33 15z"/>
<path d="M1090 4190 c-8 -5 -10 -10 -5 -10 6 0 17 5 25 10 8 5 11 10 5 10 -5
0 -17 -5 -25 -10z"/>
<path d="M4726 4175 c4 -8 8 -15 10 -15 2 0 4 7 4 15 0 8 -4 15 -10 15 -5 0
-7 -7 -4 -15z"/>
<path d="M4900 4186 c0 -2 7 -9 15 -16 13 -11 14 -10 9 4 -5 14 -24 23 -24 12z"/>
<path d="M1040 4170 c-8 -5 -10 -10 -5 -10 6 0 17 5 25 10 8 5 11 10 5 10 -5
0 -17 -5 -25 -10z"/>
<path d="M2700 4167 c0 -2 15 -16 33 -33 l32 -29 -29 33 c-28 30 -36 37 -36
29z"/>
<path d="M4407 4150 c3 -11 9 -20 14 -20 11 0 11 3 3 24 -9 23 -23 20 -17 -4z"/>
<path d="M2135 4151 c-3 -5 -2 -12 3 -15 5 -3 9 1 9 9 0 17 -3 19 -12 6z"/>
<path d="M2485 4147 c-16 -8 -39 -25 -50 -37 l-20 -23 40 6 c22 4 70 7 108 7
67 0 78 7 59 38 -13 19 -102 25 -137 9z"/>
<path d="M4484 4117 c-30 -23 -50 -46 -47 -54 7 -19 15 -16 51 17 18 17 37 30
41 30 14 0 29 23 24 36 -7 19 -11 18 -69 -29z"/>
<path d="M3668 4143 c7 -3 16 -2 19 1 4 3 -2 6 -13 5 -11 0 -14 -3 -6 -6z"/>
<path d="M4628 4123 c-20 -5 -22 -11 -8 -33 8 -13 11 -13 27 2 19 20 8 37 -19
31z"/>
<path d="M4337 4105 c-14 -10 -15 -14 -3 -24 10 -9 19 -7 37 9 13 10 22 20 19
20 -29 7 -38 6 -53 -5z"/>
<path d="M2785 4090 c10 -11 20 -20 23 -20 3 0 -3 9 -13 20 -10 11 -20 20 -23
20 -3 0 3 -9 13 -20z"/>
<path d="M3830 4055 c30 -30 57 -55 59 -55 3 0 -19 25 -49 55 -30 30 -57 55
-59 55 -3 0 19 -25 49 -55z"/>
<path d="M4547 4068 c-15 -11 -25 -24 -21 -29 3 -5 -4 -9 -15 -9 -12 0 -21 -4
-21 -10 0 -5 8 -6 18 -3 32 12 82 45 82 53 0 18 -16 17 -43 -2z"/>
<path d="M2786 4056 c6 -16 4 -17 -14 -7 -29 15 -35 14 -26 -6 4 -10 9 -49 10
-88 1 -38 4 -77 6 -85 27 -90 31 -99 58 -105 16 -3 36 -15 46 -26 15 -16 16
-24 6 -58 -13 -41 -90 -121 -117 -121 -8 0 -15 -4 -15 -10 0 -13 16 -13 40 0
10 6 30 11 44 12 15 1 26 8 26 16 0 7 4 11 8 8 5 -3 14 16 20 41 l13 46 31
-31 c17 -18 38 -32 47 -32 14 0 14 2 1 10 -13 9 -13 11 0 21 12 8 10 9 -7 4
-24 -7 -63 24 -63 50 0 22 48 9 84 -24 16 -14 26 -20 22 -13 -5 8 2 12 24 12
17 0 45 6 63 13 50 20 120 13 159 -16 37 -27 78 -50 78 -43 0 2 -17 15 -37 27
-21 12 -63 43 -93 68 -30 25 -46 34 -35 21 16 -19 17 -22 4 -17 -9 3 -38 -5
-65 -19 -59 -30 -72 -30 -70 -1 1 15 14 29 46 46 l44 23 -38 35 c-36 33 -38
34 -62 18 -27 -18 -30 -9 -10 30 l14 28 59 -54 c32 -30 49 -43 38 -30 -24 28
-306 273 -286 248 7 -9 51 -49 98 -89 65 -55 81 -73 68 -78 -12 -4 -17 -21
-20 -65 -2 -33 -6 -68 -10 -77 -6 -15 -2 -18 21 -19 25 0 26 -1 9 -9 -30 -13
-32 -12 -60 15 -26 27 -34 78 -14 91 6 3 8 16 5 27 -3 13 2 26 12 34 15 12 13
13 -13 7 l-30 -5 24 21 c26 22 22 41 -4 20 -21 -17 -29 -7 -15 19 7 14 7 21 0
21 -5 0 -20 11 -32 25 -12 14 -25 25 -29 25 -4 0 -13 -26 -20 -57 -12 -53 -13
-55 -21 -27 -4 16 -7 50 -6 77 0 27 -5 54 -11 60 -9 9 -11 8 -5 -7z m35 -263
c13 -15 12 -15 -8 -4 -24 12 -29 21 -14 21 5 0 15 -7 22 -17z"/>
<path d="M2545 4040 c-4 -6 -10 -8 -15 -5 -4 3 -19 0 -32 -5 -21 -9 -20 -10 7
-5 24 5 28 4 18 -6 -31 -31 -5 -38 46 -13 19 9 48 14 71 12 34 -3 37 -1 29 14
-7 14 -22 18 -64 18 -29 0 -57 -5 -60 -10z"/>
<path d="M3194 4043 c-18 -2 -40 -14 -50 -25 l-19 -22 25 17 c29 20 40 21 40
6 0 -6 21 -39 48 -73 76 -98 115 -156 160 -237 23 -41 51 -84 62 -94 16 -14
17 -20 8 -27 -10 -6 -9 -8 2 -8 8 0 21 -9 28 -21 13 -20 14 -20 49 15 32 30
35 37 23 51 -12 14 -11 18 1 26 14 8 56 13 91 10 10 -1 26 2 35 8 15 9 13 10
-12 10 -58 1 -166 -19 -189 -34 -23 -15 -24 -15 -22 9 0 13 4 22 8 20 4 -3 5
2 2 10 -7 18 -30 21 -39 6 -8 -13 -25 -3 -24 13 0 8 2 8 6 -1 4 -10 9 -9 24 4
10 9 44 20 76 24 53 7 62 10 31 14 -6 0 -13 6 -15 13 -3 8 3 11 17 8 11 -2 18
0 15 5 -3 5 -18 6 -33 4 -22 -4 -25 -3 -14 7 6 7 12 20 12 29 0 21 57 70 82
70 13 0 17 -4 12 -12 -5 -9 -2 -9 9 1 9 7 17 9 17 3 0 -5 7 -13 16 -16 14 -5
15 -4 5 8 -11 13 -6 15 38 12 28 -2 51 0 51 4 0 12 -104 24 -140 16 -17 -3
-30 -4 -30 -2 0 2 18 15 40 30 22 14 39 30 39 34 -3 18 2 30 23 52 20 22 21
23 3 16 -11 -5 -72 -11 -135 -14 -92 -3 -136 0 -219 17 -57 11 -109 20 -115
19 -6 0 -25 -3 -42 -5z m181 -127 c-18 -28 -35 -26 -35 3 0 18 42 45 48 30 2
-4 -4 -19 -13 -33z m113 14 c8 -8 11 -9 7 -2 -3 6 -1 12 5 12 6 0 13 -7 16
-15 5 -12 9 -13 21 -4 7 7 29 12 48 13 l34 1 -21 -22 c-16 -17 -18 -23 -7 -23
8 0 -1 -9 -18 -20 -18 -11 -47 -44 -64 -75 -17 -30 -37 -55 -46 -55 -8 0 -12
3 -9 8 2 4 -2 16 -10 26 -13 19 -14 19 -34 1 -29 -26 -35 -13 -6 14 l23 22
-31 33 c-17 18 -37 31 -44 28 -6 -2 1 10 18 28 16 18 30 35 30 39 0 14 75 6
88 -9z"/>
<path d="M4391 4041 c-8 -6 -9 -11 -3 -15 6 -3 14 -1 17 5 9 14 2 20 -14 10z"/>
<path d="M1905 4017 c-79 -58 -326 -260 -375 -307 -32 -30 -16 -19 39 27 51
43 153 125 225 181 72 57 135 108 141 113 16 16 1 9 -30 -14z"/>
<path d="M4650 4033 c0 -4 5 -15 10 -23 8 -13 10 -13 10 2 0 9 -4 20 -10 23
-5 3 -10 3 -10 -2z"/>
<path d="M4467 4014 c-4 -4 -7 -14 -7 -23 0 -11 3 -12 11 -4 6 6 10 16 7 23
-2 6 -7 8 -11 4z"/>
<path d="M2423 4003 c-7 -2 -13 -9 -13 -15 0 -6 6 -6 15 2 8 6 20 8 26 4 8 -4
9 -3 5 4 -8 13 -13 14 -33 5z"/>
<path d="M2682 3984 c2 -11 -1 -18 -7 -17 -5 1 -28 4 -50 7 l-40 7 50 -22 c65
-27 78 -38 71 -63 -3 -11 2 -28 11 -38 9 -10 13 -18 10 -18 -6 0 4 -37 18 -73
7 -18 3 -19 -77 -14 -47 2 -95 10 -106 16 -19 10 -22 9 -22 -6 0 -28 -34 -45
-55 -29 -23 16 -13 66 13 67 13 0 12 2 -5 9 -11 5 -41 29 -66 53 -45 46 -67
47 -67 6 0 -19 49 -64 80 -74 21 -7 27 -30 10 -40 -6 -4 -4 -12 5 -21 8 -9 15
-21 15 -28 0 -9 13 -13 39 -12 22 0 37 4 35 8 -6 9 -2 10 36 12 20 1 25 -4 26
-24 2 -67 4 -75 14 -60 8 12 10 10 11 -10 1 -23 1 -23 10 5 4 17 30 50 56 75
25 25 44 40 41 35 -4 -6 1 -11 10 -11 9 -1 30 -4 45 -9 l28 -8 -26 29 c-40 43
-65 97 -54 116 6 10 4 20 -5 27 -8 7 -20 34 -26 62 -11 46 -35 82 -28 43z
m-32 -238 c0 -2 -7 -7 -16 -10 -8 -3 -12 -2 -9 4 6 10 25 14 25 6z m33 -33 c9
-9 -33 -53 -50 -53 -21 0 -15 28 7 35 11 4 18 11 15 16 -7 10 18 13 28 2z"/>
<path d="M141 3963 c0 -16 4 -37 9 -48 6 -15 9 -8 9 28 1 26 -3 47 -9 47 -5 0
-10 -12 -9 -27z"/>
<path d="M543 3962 c-8 -5 -9 -13 -3 -22 7 -12 10 -12 16 3 8 21 3 29 -13 19z"/>
<path d="M580 3945 c-17 -21 -9 -27 13 -10 10 7 14 16 9 19 -5 3 -15 -1 -22
-9z"/>
<path d="M2325 3950 c-11 -5 -71 -9 -134 -9 -63 -1 -112 -3 -110 -5 7 -6 261
-14 255 -8 -3 3 -1 11 5 19 13 15 12 15 -16 3z"/>
<path d="M500 3942 c0 -5 7 -17 15 -28 15 -19 20 -8 9 20 -6 17 -24 22 -24 8z"/>
<path d="M4480 3930 c0 -5 5 -10 10 -10 6 0 10 5 10 10 0 6 -4 10 -10 10 -5 0
-10 -4 -10 -10z"/>
<path d="M97 3880 c-10 -27 -36 -69 -57 -92 -37 -38 -51 -68 -32 -68 27 0 76
74 101 153 19 57 8 64 -12 7z"/>
<path d="M2450 3918 c0 -9 7 -19 16 -22 15 -6 15 -4 3 11 -7 10 -15 20 -16 22
-2 2 -3 -3 -3 -11z"/>
<path d="M550 3890 c20 -13 43 -13 35 0 -3 6 -16 10 -28 10 -18 0 -19 -2 -7
-10z"/>
<path d="M1889 3868 c-29 -15 -66 -38 -83 -51 -29 -21 -134 -61 -164 -62 -7 0
-16 -5 -20 -11 -4 -6 -34 -28 -67 -50 -63 -41 -225 -196 -225 -214 0 -6 5 -8
11 -4 8 4 8 0 0 -15 -14 -25 -22 -28 -15 -3 9 27 -42 -36 -81 -101 -19 -32
-32 -63 -29 -69 5 -7 2 -8 -6 -3 -10 6 -12 4 -7 -9 4 -9 3 -15 -2 -12 -4 3
-18 -17 -31 -44 -13 -27 -34 -59 -47 -71 -25 -24 -32 -49 -8 -29 19 16 19 9 0
-37 -39 -94 -54 -181 -80 -467 -12 -134 -18 -162 -35 -181 -21 -22 -27 -41
-10 -30 25 15 54 -111 53 -227 0 -16 3 -28 7 -28 4 0 7 -12 7 -27 0 -52 52
-273 79 -332 14 -33 37 -69 49 -81 13 -13 27 -35 30 -50 3 -15 15 -36 26 -46
19 -17 19 -17 5 17 -25 61 -29 82 -16 74 7 -4 4 4 -5 19 -24 36 -11 45 22 15
34 -30 11 3 -28 41 -28 27 -74 109 -66 117 3 2 8 -5 12 -18 6 -17 9 -19 17 -8
8 11 9 10 4 -3 -3 -10 -2 -26 1 -35 6 -15 7 -15 13 1 5 16 8 15 35 -5 30 -23
30 -23 11 -1 -11 12 -14 22 -8 22 6 0 14 -4 17 -10 3 -5 10 -10 15 -10 5 0 -6
28 -25 63 -19 35 -35 72 -35 83 0 10 -7 39 -16 63 -8 24 -12 46 -9 49 3 3 5 0
5 -6 0 -7 3 -12 8 -12 4 0 8 24 8 53 1 28 4 66 7 82 2 17 5 44 6 60 2 23 9 10
35 -60 38 -106 125 -287 161 -335 14 -19 25 -40 25 -48 0 -7 5 -10 10 -7 19
12 10 42 -29 96 -89 125 -184 365 -196 494 -5 50 -3 66 4 55 8 -11 11 -3 13
35 1 28 1 60 0 73 0 12 3 22 7 22 5 0 14 26 20 58 11 49 10 61 -3 87 l-16 30
0 -33 c0 -29 -2 -32 -14 -19 -24 24 -25 237 -1 261 8 8 13 21 10 28 -3 8 6 35
19 61 14 26 33 75 42 110 28 110 97 263 113 252 4 -2 24 13 44 34 35 38 77 59
77 39 0 -5 5 -6 12 -2 8 5 9 2 4 -12 -10 -25 -36 -145 -36 -164 1 -8 10 3 22
25 11 22 24 42 27 45 4 3 13 37 20 75 16 84 46 178 68 211 24 38 27 21 4 -25
-12 -22 -21 -53 -20 -68 0 -20 7 -10 24 40 13 37 22 74 19 81 -3 7 2 16 11 20
13 4 15 1 11 -14 -3 -11 -8 -29 -11 -39 -3 -11 -1 -28 6 -39 11 -17 15 -18 38
-6 14 8 32 14 39 14 6 0 12 5 12 10 0 21 45 9 68 -17 l23 -28 -14 30 c-16 33
-12 59 6 49 8 -5 8 -2 0 7 -31 33 6 49 43 18 10 -9 22 -3 55 24 23 20 56 43
75 52 38 18 45 44 14 52 -11 3 -17 9 -14 14 8 14 -3 11 -38 -11 -21 -13 -27
-20 -16 -20 9 0 20 -5 24 -11 5 -8 -6 -9 -37 -4 -69 12 -75 44 -13 67 19 6 34
15 34 18 0 17 -65 4 -111 -22z m75 -84 c13 -5 13 -8 1 -20 -17 -17 -32 -18
-38 -1 -4 9 -8 8 -16 -3 -9 -13 -11 -13 -11 1 0 28 26 37 64 23z m-190 -57
c17 -12 17 -15 2 -30 -18 -18 -41 -14 -50 10 -13 32 16 43 48 20z m71 -9 c5 4
5 1 0 -7 -7 -12 -10 -11 -20 2 -7 9 -16 13 -20 9 -5 -4 -5 -1 0 7 7 12 10 11
20 -2 7 -9 16 -13 20 -9z m-235 -27 c-2 -21 -90 -95 -90 -76 0 15 62 82 75 82
8 0 15 -3 15 -6z m11 -39 c-6 -11 -8 -22 -6 -26 3 -3 0 -2 -6 3 -7 6 -7 15 2
29 16 26 24 21 10 -6z m-167 -157 c-4 -8 -11 -15 -16 -15 -6 0 -5 6 2 15 7 8
14 15 16 15 2 0 1 -7 -2 -15z m-117 -156 c-59 -111 -133 -348 -142 -457 -2
-30 -8 -59 -13 -65 -5 -7 -7 -32 -5 -57 4 -57 -3 -81 -18 -60 -8 11 -9 7 -4
-15 17 -75 17 -77 -3 -66 -15 8 -19 23 -21 90 -1 72 1 81 16 81 14 0 15 2 5 9
-10 6 -11 17 -4 47 6 21 13 66 17 99 8 70 65 266 100 343 26 56 75 115 88 103
4 -4 -3 -27 -16 -52z m-317 -929 c0 -5 -2 -10 -4 -10 -3 0 -8 5 -11 10 -3 6
-1 10 4 10 6 0 11 -4 11 -10z m167 -425 c10 -27 22 -56 26 -62 5 -7 5 -18 1
-24 -10 -16 -68 90 -93 170 -17 57 -52 221 -50 240 0 3 22 -57 49 -134 27 -77
57 -162 67 -190z m47 -125 c-8 -8 -15 -6 -25 6 -9 12 -10 15 -1 10 7 -4 12 -2
12 5 0 10 3 10 12 1 8 -8 9 -15 2 -22z m-59 -73 c8 -20 13 -37 10 -37 -6 0
-35 64 -35 76 0 13 9 -1 25 -39z"/>
<path d="M1141 2744 c0 -11 3 -14 6 -6 3 7 2 16 -1 19 -3 4 -6 -2 -5 -13z"/>
<path d="M2480 3871 c0 -5 5 -13 10 -16 6 -3 10 -2 10 4 0 5 -4 13 -10 16 -5
3 -10 2 -10 -4z"/>
<path d="M4001 3875 c-1 -14 37 -61 43 -54 3 2 -6 18 -19 34 -13 17 -24 26
-24 20z"/>
<path d="M3918 3863 c7 -3 16 -2 19 1 4 3 -2 6 -13 5 -11 0 -14 -3 -6 -6z"/>
<path d="M4940 3847 c0 -2 14 -22 31 -43 l31 -39 -4 33 c-2 18 -8 33 -13 33
-6 1 -18 5 -27 10 -10 5 -18 8 -18 6z m47 -34 c0 -9 -4 -10 -14 -2 -7 6 -13
12 -13 14 0 1 6 2 13 2 8 0 14 -6 14 -14z"/>
<path d="M567 3806 c-5 -15 -6 -31 -3 -34 8 -8 18 25 14 45 -3 13 -6 10 -11
-11z"/>
<path d="M3713 3815 c0 -8 4 -15 9 -15 4 0 8 4 8 9 0 6 -4 12 -8 15 -5 3 -9
-1 -9 -9z"/>
<path d="M3878 3813 c7 -3 16 -2 19 1 4 3 -2 6 -13 5 -11 0 -14 -3 -6 -6z"/>
<path d="M4298 3779 c67 -21 83 -39 61 -66 -12 -14 -12 -16 1 -8 7 5 32 8 53
6 25 -1 36 2 32 9 -3 6 3 10 15 10 13 0 19 -4 14 -11 -4 -8 3 -9 25 -5 17 3
45 9 61 12 34 6 42 -14 15 -36 -22 -18 -18 -30 8 -30 25 0 41 11 72 49 l20 24
-29 -7 c-17 -4 -32 -3 -35 3 -8 13 -249 63 -321 67 l-55 3 63 -20z"/>
<path d="M2300 3765 c0 -18 19 -40 26 -32 4 4 0 15 -9 24 -9 10 -17 13 -17 8z"/>
<path d="M4167 3735 c20 -27 33 -32 33 -12 0 17 -20 37 -37 37 -11 0 -9 -6 4
-25z"/>
<path d="M2370 3717 c19 -6 38 -16 42 -21 5 -7 8 -4 8 6 0 9 8 19 18 21 9 3
-10 5 -43 5 -58 0 -59 0 -25 -11z"/>
<path d="M4688 3713 c7 -3 16 -2 19 1 4 3 -2 6 -13 5 -11 0 -14 -3 -6 -6z"/>
<path d="M0 3692 c0 -22 56 -112 70 -112 5 0 10 7 10 16 0 14 3 14 15 4 8 -7
15 -18 15 -26 0 -7 4 -16 10 -19 6 -4 7 1 4 12 -5 15 -4 15 4 3 6 -8 7 -19 3
-25 -4 -5 1 -26 10 -45 19 -37 25 -28 9 14 -7 20 -6 24 5 19 21 -8 18 4 -10
42 -19 23 -22 34 -13 37 7 3 -6 16 -30 29 -23 13 -40 29 -38 35 3 6 -7 17 -20
23 -35 15 -44 14 -44 -7z"/>
<path d="M1886 3698 c3 -4 9 -8 15 -8 5 0 9 4 9 8 0 5 -7 9 -15 9 -8 0 -12 -4
-9 -9z"/>
<path d="M2585 3700 c3 -5 8 -10 11 -10 2 0 4 5 4 10 0 6 -5 10 -11 10 -5 0
-7 -4 -4 -10z"/>
<path d="M4770 3685 c-7 -8 -16 -12 -22 -9 -5 3 -8 -11 -6 -31 3 -52 14 -52
34 0 18 48 15 66 -6 40z"/>
<path d="M3780 3640 c-100 -51 -116 -57 -104 -38 4 7 3 8 -5 4 -6 -4 -8 -12
-5 -18 4 -7 2 -8 -5 -4 -15 10 -95 -42 -141 -90 l-35 -37 60 40 c68 46 148 88
185 97 l25 6 -26 -13 c-15 -6 -41 -27 -59 -44 -31 -30 -32 -35 -21 -57 13 -23
15 -23 45 -11 24 11 31 19 29 39 -2 32 34 47 52 22 16 -21 29 -20 21 2 -5 14
-4 14 9 -2 21 -28 19 -35 -12 -47 -96 -38 -163 -90 -145 -112 12 -14 -7 -37
-41 -50 -9 -3 -17 -10 -17 -15 0 -5 -14 -9 -31 -10 -29 -1 -30 0 -13 14 17 13
16 13 -8 3 -26 -11 -26 -13 -10 -26 16 -14 16 -14 0 -9 -10 3 -20 1 -23 -5 -4
-5 -11 -7 -16 -3 -5 3 -8 0 -7 -7 3 -12 -2 -15 -37 -18 -9 0 -20 -12 -25 -25
-5 -13 -14 -26 -21 -28 -7 -2 -10 -11 -6 -21 8 -20 61 -23 104 -6 15 6 44 13
63 15 54 7 101 24 94 36 -4 7 -9 7 -13 -1 -4 -6 -22 -14 -40 -17 l-33 -7 17
27 c9 14 24 27 31 27 8 1 20 2 27 3 6 1 17 -2 24 -6 8 -7 10 -3 6 10 -5 21 45
85 81 103 11 6 4 -3 -16 -21 l-38 -31 23 -40 c12 -22 31 -45 42 -51 11 -5 30
-22 43 -36 l24 -27 -17 33 c-17 34 -15 49 4 38 5 -4 29 -40 52 -81 24 -41 44
-73 46 -71 2 1 -20 45 -47 96 -28 51 -48 95 -45 98 3 3 5 0 5 -8 0 -10 3 -10
15 0 8 7 15 21 15 31 0 40 30 15 90 -73 75 -111 89 -127 61 -71 -26 52 -26 50
4 57 14 4 25 11 25 17 0 18 44 48 63 43 9 -3 17 -1 17 4 0 17 46 32 60 19 18
-17 4 24 -31 95 -31 62 -34 73 -19 63 6 -4 7 2 1 17 -7 19 -16 23 -47 22 -22
0 -52 -3 -69 -7 l-30 -7 32 15 c17 8 50 16 72 17 50 4 52 13 7 32 -41 17 -59
16 -83 -7 -20 -17 -166 -80 -158 -67 2 4 18 13 35 20 16 7 27 17 24 22 -4 6 2
8 15 3 16 -5 21 -2 21 12 0 14 2 15 9 4 7 -10 18 -5 50 24 72 66 47 74 -59 19
-38 -19 -74 -33 -79 -30 -5 3 -12 18 -16 33 -3 16 -14 36 -23 47 -16 17 -15
20 18 47 19 16 32 29 30 28 -3 0 -48 -22 -100 -49z m-24 -245 c-11 -8 -25 -15
-30 -15 -6 1 0 7 14 15 32 19 40 18 16 0z m-199 -126 c-18 -10 -18 -11 0 -25
17 -14 16 -14 -5 -4 -19 9 -21 14 -11 26 6 8 17 14 23 14 6 0 3 -5 -7 -11z
m-67 -54 c-7 -8 -20 -14 -29 -14 -13 1 -12 2 2 6 10 3 16 11 13 18 -3 8 0 16
7 18 17 6 21 -11 7 -28z m47 8 c-9 -2 -14 -9 -11 -15 4 -6 2 -8 -4 -4 -5 3
-12 0 -15 -6 -2 -7 -8 -10 -12 -6 -12 12 15 38 39 37 17 -1 18 -2 3 -6z m-100
-25 c-3 -8 -6 -5 -6 6 -1 11 2 17 5 13 3 -3 4 -12 1 -19z"/>
<path d="M4343 3654 c-3 -8 -1 -20 6 -27 8 -8 11 -8 11 2 0 7 5 9 10 6 12 -7
12 -3 4 19 -8 20 -23 20 -31 0z"/>
<path d="M4390 3655 c0 -15 49 -45 75 -45 8 0 15 5 15 11 0 5 5 7 12 3 7 -4 8
-3 4 5 -4 6 -11 9 -16 6 -5 -3 -15 3 -22 15 -15 24 -68 28 -68 5z"/>
<path d="M4540 3641 c-7 -14 -6 -20 4 -24 13 -5 36 10 36 24 0 17 -31 17 -40
0z"/>
<path d="M0 3548 c0 -60 3 -108 8 -108 4 0 18 19 30 41 27 46 25 65 -13 130
l-25 44 0 -107z"/>
<path d="M2360 3620 c0 -11 42 -31 49 -24 2 2 -2 10 -9 19 -14 17 -40 20 -40
5z"/>
<path d="M2586 3612 c-3 -6 -1 -14 5 -17 15 -10 25 3 12 16 -7 7 -13 7 -17 1z"/>
<path d="M3020 3601 c0 -3 14 -18 30 -33 34 -29 35 -29 19 6 -10 22 -49 44
-49 27z"/>
<path d="M1374 3568 l-29 -33 33 29 c30 28 37 36 29 36 -2 0 -16 -15 -33 -32z"/>
<path d="M2500 3598 c0 -2 8 -11 19 -19 16 -14 21 -14 42 -2 23 13 23 13 2 8
-12 -3 -31 -1 -43 5 -11 6 -20 9 -20 8z"/>
<path d="M3376 3589 c3 -5 12 -9 21 -9 12 0 14 -7 10 -35 -3 -19 -2 -35 4 -35
5 0 8 -11 7 -25 -1 -14 -6 -25 -10 -25 -4 0 -8 -8 -8 -17 0 -14 6 -11 25 12
13 17 24 35 25 42 0 7 10 21 22 33 25 23 16 39 -25 42 -15 1 -27 5 -27 9 0 4
-11 9 -25 11 -13 3 -22 1 -19 -3z"/>
<path d="M215 3570 c10 -11 25 -20 34 -20 12 1 10 5 -8 20 -30 26 -49 26 -26
0z"/>
<path d="M2621 3587 c2 -1 13 -9 24 -17 19 -14 19 -14 6 3 -7 9 -18 17 -24 17
-6 0 -8 -1 -6 -3z"/>
<path d="M2443 3573 c9 -2 23 -2 30 0 6 3 -1 5 -18 5 -16 0 -22 -2 -12 -5z"/>
<path d="M3270 3569 c0 -5 28 -9 62 -9 34 0 59 2 57 4 -10 8 -119 14 -119 5z"/>
<path d="M4723 3563 c-3 -10 -8 -22 -11 -27 -3 -5 0 -6 5 -3 11 7 25 47 17 47
-3 0 -7 -8 -11 -17z"/>
<path d="M2600 3540 c0 -5 7 -7 15 -4 8 4 15 8 15 10 0 2 -7 4 -15 4 -8 0 -15
-4 -15 -10z"/>
<path d="M4235 3494 c-21 -19 -49 -37 -61 -40 -13 -3 -25 -12 -28 -20 -3 -8
-2 -12 3 -9 9 5 27 -32 23 -47 -1 -5 2 -8 7 -8 5 0 28 -31 51 -70 32 -53 50
-72 76 -82 21 -7 34 -18 33 -28 -1 -8 3 -26 8 -40 6 -14 9 -28 6 -32 -2 -5 0
-8 4 -8 5 0 8 -22 6 -49 -4 -58 33 -146 49 -117 18 33 37 97 27 90 -7 -4 -9 0
-6 12 3 11 8 42 12 69 8 59 16 73 110 185 133 157 190 258 88 155 -72 -72
-132 -123 -170 -143 -22 -12 -53 -7 -53 9 0 5 -5 9 -11 9 -6 0 -24 9 -39 20
-16 11 -35 17 -44 14 -12 -5 -16 0 -17 17 0 13 -3 18 -6 12 -8 -21 -27 -15
-67 20 -31 28 -35 35 -23 46 35 28 157 27 157 -1 0 -4 5 -8 11 -8 6 0 18 -9
27 -20 19 -22 111 -42 98 -22 -4 8 0 12 11 12 14 0 22 12 30 42 6 24 10 45 8
47 -11 10 -100 20 -185 20 -94 0 -95 0 -135 -35z"/>
<path d="M2626 3501 c-4 -5 3 -7 14 -4 23 6 26 13 6 13 -8 0 -17 -4 -20 -9z"/>
<path d="M2848 3457 c-32 -28 -34 -35 -23 -50 9 -13 15 -15 20 -7 5 8 15 4 31
-11 29 -27 31 -14 4 21 -26 34 -25 50 5 50 18 0 23 4 19 15 -8 21 -14 19 -56
-18z"/>
<path d="M2613 3470 c-37 -15 -26 -29 12 -16 19 7 38 15 41 19 10 10 -27 7
-53 -3z"/>
<path d="M280 3463 c-26 -5 -52 -22 -35 -24 6 0 22 -2 38 -4 21 -3 27 0 27 16
0 10 -1 18 -2 18 -2 -1 -14 -4 -28 -6z"/>
<path d="M1254 3448 l-19 -23 23 19 c21 18 27 26 19 26 -2 0 -12 -10 -23 -22z"/>
<path d="M2525 3440 c3 -5 10 -10 16 -10 5 0 9 5 9 10 0 6 -7 10 -16 10 -8 0
-12 -4 -9 -10z"/>
<path d="M2900 3438 c0 -8 12 -25 27 -39 l27 -24 -24 35 c-13 19 -25 37 -27
39 -2 2 -3 -2 -3 -11z"/>
<path d="M1661 3414 c0 -11 3 -14 6 -6 3 7 2 16 -1 19 -3 4 -6 -2 -5 -13z"/>
<path d="M1406 3405 c-9 -26 -7 -32 5 -12 6 10 9 21 6 23 -2 3 -7 -2 -11 -11z"/>
<path d="M2570 3401 c0 -18 3 -19 32 -9 28 10 30 12 12 19 -32 13 -44 10 -44
-10z"/>
<path d="M2784 3412 c-16 -11 -23 -37 -13 -53 6 -10 9 -10 9 -1 0 6 7 12 15
12 12 0 13 4 6 19 -6 10 -7 21 -4 25 9 8 0 7 -13 -2z"/>
<path d="M3052 3400 c0 -14 2 -19 5 -12 2 6 2 18 0 25 -3 6 -5 1 -5 -13z"/>
<path d="M1199 3383 l-24 -28 28 24 c25 23 32 31 24 31 -2 0 -14 -12 -28 -27z"/>
<path d="M2726 3385 c-4 -12 -10 -13 -23 -5 -25 15 -106 -9 -95 -28 12 -18
104 3 128 29 9 10 12 19 7 19 -6 0 -13 -7 -17 -15z"/>
<path d="M3437 3383 c-13 -12 -7 -43 7 -43 19 0 28 14 20 34 -7 17 -16 20 -27
9z"/>
<path d="M1386 3344 c-4 -14 -5 -28 -3 -31 3 -2 8 8 11 23 4 14 5 28 3 31 -3
2 -8 -8 -11 -23z"/>
<path d="M3029 3363 c-21 -5 -44 -53 -26 -53 6 0 20 14 29 30 9 17 16 29 15
29 -1 -1 -9 -3 -18 -6z"/>
<path d="M2931 3324 c1 -21 3 -31 6 -22 2 10 10 15 19 11 21 -8 17 11 -6 32
-20 18 -20 17 -19 -21z"/>
<path d="M1154 3328 c-44 -51 -57 -68 -52 -68 3 0 22 20 42 45 38 46 45 63 10
23z"/>
<path d="M2571 3334 c0 -11 3 -14 6 -6 3 7 2 16 -1 19 -3 4 -6 -2 -5 -13z"/>
<path d="M2725 3300 c-20 -38 -20 -61 1 -53 10 4 14 13 10 26 -3 11 -1 29 5
39 5 10 7 18 5 18 -3 0 -12 -13 -21 -30z"/>
<path d="M2636 3303 c-4 -10 -4 -14 0 -10 4 4 15 0 24 -8 16 -14 18 -14 24 1
7 17 -8 34 -30 34 -7 0 -15 -8 -18 -17z"/>
<path d="M2856 3307 c3 -10 9 -15 12 -12 3 3 0 11 -7 18 -10 9 -11 8 -5 -6z"/>
<path d="M1356 3231 c-9 -38 -15 -87 -15 -108 2 -33 3 -34 6 -8 2 17 10 63 18
104 19 95 12 105 -9 12z"/>
<path d="M3235 3259 c98 -101 143 -157 136 -165 -3 -4 0 -3 8 1 11 6 13 4 8
-9 -4 -11 -3 -15 4 -11 6 4 7 14 4 24 -7 16 -13 39 -14 54 -1 5 -4 6 -8 4 -5
-2 -24 15 -43 37 -19 23 -27 35 -17 27 15 -12 17 -11 17 3 0 9 -6 16 -13 16
-7 0 -34 14 -60 30 -64 40 -69 38 -22 -11z"/>
<path d="M2572 3260 c0 -19 2 -27 5 -17 2 9 2 25 0 35 -3 9 -5 1 -5 -18z"/>
<path d="M2601 3283 c-1 -17 16 -25 25 -12 4 7 3 9 -4 5 -5 -3 -13 0 -15 6 -4
9 -6 10 -6 1z"/>
<path d="M2940 3246 c-25 -18 -73 -43 -107 -57 -35 -13 -63 -27 -63 -32 0 -4
-4 -5 -10 -2 -14 9 -12 -8 4 -30 7 -10 21 -20 31 -21 14 -2 16 3 12 26 -6 26
-2 29 51 53 31 13 59 21 60 16 6 -14 25 -10 50 9 17 13 23 26 20 45 l-3 26
-45 -33z"/>
<path d="M3360 3262 c0 -5 9 -12 21 -15 13 -3 19 -1 16 6 -5 15 -37 22 -37 9z"/>
<path d="M3690 3250 c6 -11 13 -20 16 -20 2 0 0 9 -6 20 -6 11 -13 20 -16 20
-2 0 0 -9 6 -20z"/>
<path d="M1073 3228 c-11 -13 -58 -75 -105 -138 -88 -119 -128 -168 -128 -157
0 4 -8 0 -17 -8 -10 -8 -36 -28 -58 -44 -22 -17 -46 -36 -53 -42 -21 -17 -129
-64 -319 -138 -190 -73 -396 -161 -390 -167 1 -2 59 21 127 50 69 29 204 83
300 120 210 80 338 141 404 191 30 24 72 74 112 134 35 53 77 111 93 130 25
29 30 31 34 15 2 -11 3 -5 2 11 -2 17 4 38 13 48 8 9 13 17 10 17 -2 0 -14
-10 -25 -22z"/>
<path d="M2780 3239 c0 -5 5 -7 10 -4 6 3 10 8 10 11 0 2 -4 4 -10 4 -5 0 -10
-5 -10 -11z"/>
<path d="M3346 3232 c-4 -6 -1 -22 5 -34 15 -28 23 -11 11 22 -6 15 -11 19
-16 12z"/>
<path d="M3240 3207 c0 -31 13 -42 29 -23 8 10 6 17 -9 31 -20 18 -20 17 -20
-8z"/>
<path d="M2721 3208 c-1 -21 15 -32 25 -17 4 7 3 9 -4 5 -6 -3 -13 2 -15 11
-4 16 -5 16 -6 1z"/>
<path d="M2646 3182 c-20 -27 -20 -27 0 -9 12 9 24 14 28 10 4 -4 4 0 0 10 -8
21 -5 22 -28 -11z"/>
<path d="M2244 3178 c-5 -7 -3 -8 6 -3 10 6 12 4 7 -9 -6 -15 51 -161 60 -153
2 2 -11 34 -27 72 -17 37 -29 69 -27 71 4 4 77 -149 77 -161 0 -3 -5 -3 -11 1
-7 4 -2 -12 11 -34 27 -49 34 -49 20 -2 -5 19 -8 35 -6 37 2 2 27 -35 55 -82
29 -47 55 -85 58 -85 3 0 -1 10 -9 23 -19 29 -137 228 -172 290 -29 51 -31 53
-42 35z"/>
<path d="M2590 3180 c-9 -6 -10 -10 -3 -10 6 0 15 5 18 10 8 12 4 12 -15 0z"/>
<path d="M3710 3179 c0 -5 -4 -7 -10 -4 -11 7 -11 6 -15 -43 -2 -28 -32 -72
-48 -72 -3 0 -3 23 0 50 5 49 4 50 -22 50 -14 0 -24 -4 -21 -9 4 -5 -2 -7 -12
-4 -10 2 -46 -2 -79 -10 -36 -8 -67 -10 -76 -5 -13 7 -15 3 -11 -19 6 -34 14
-43 14 -16 0 11 7 20 14 20 11 0 12 -5 6 -17 -12 -22 15 -37 85 -49 28 -5 60
-12 73 -16 15 -5 22 -3 22 6 0 11 2 11 10 -1 9 -13 12 -13 21 3 6 10 15 14 22
10 7 -4 5 2 -3 12 -14 17 -13 18 3 12 10 -4 21 -7 23 -7 3 0 3 -4 0 -8 -2 -4
-1 -14 4 -22 7 -11 13 -11 39 0 17 7 34 16 36 20 5 8 -63 130 -71 130 -2 0 -4
-5 -4 -11z m0 -63 c0 -3 -4 -8 -10 -11 -5 -3 -10 -1 -10 4 0 6 5 11 10 11 6 0
10 -2 10 -4z"/>
<path d="M3160 3150 c0 -19 3 -21 12 -12 9 9 9 15 0 24 -9 9 -12 7 -12 -12z"/>
<path d="M2618 3143 c7 -3 16 -2 19 1 4 3 -2 6 -13 5 -11 0 -14 -3 -6 -6z"/>
<path d="M2718 3131 c-14 -5 -14 -9 -4 -23 15 -20 36 -10 27 13 -4 10 -12 14
-23 10z"/>
<path d="M2613 3102 c-25 -4 -29 -12 -12 -29 11 -11 49 -6 49 6 -1 16 -17 26
-37 23z"/>
<path d="M2560 3091 c0 -5 5 -13 10 -16 6 -3 10 -2 10 4 0 5 -4 13 -10 16 -5
3 -10 2 -10 -4z"/>
<path d="M3420 3030 c11 -23 18 -46 14 -53 -5 -9 -4 -9 5 -1 10 9 8 21 -8 53
-12 22 -24 41 -26 41 -3 0 4 -18 15 -40z"/>
<path d="M4185 3017 c-87 -36 -215 -105 -215 -115 0 -4 9 -13 20 -20 11 -6 41
-48 66 -92 26 -45 50 -83 54 -85 3 -2 11 4 17 14 8 13 2 34 -28 96 -22 43 -39
85 -39 92 0 22 35 -6 55 -44 11 -21 21 -29 25 -22 5 7 13 -1 21 -19 7 -17 17
-28 21 -26 5 3 5 11 1 17 -4 7 -9 20 -10 30 -3 15 -1 16 11 5 8 -7 12 -17 9
-23 -2 -5 2 -2 10 8 14 17 13 24 -9 73 -13 30 -24 58 -24 62 0 4 16 16 35 26
30 16 76 56 64 56 -2 0 -40 -15 -84 -33z"/>
<path d="M1931 2964 c0 -11 3 -14 6 -6 3 7 2 16 -1 19 -3 4 -6 -2 -5 -13z"/>
<path d="M2175 2955 c8 -58 28 -156 30 -153 1 2 5 17 9 33 4 19 3 25 -2 17 -6
-9 -9 -1 -9 25 0 21 -8 54 -17 73 -16 35 -16 35 -11 5z"/>
<path d="M3835 2950 c-3 -6 -4 -19 0 -29 3 -10 7 -49 9 -86 2 -37 9 -71 16
-75 6 -4 11 -10 11 -14 -3 -19 0 -26 10 -26 8 0 8 5 -1 15 -9 10 -9 15 -1 15
6 0 11 8 10 18 0 10 -3 12 -6 4 -10 -24 -23 0 -23 41 l1 42 14 -32 c8 -18 18
-33 22 -33 4 0 26 -27 47 -61 23 -36 42 -56 46 -49 4 7 30 -20 66 -69 32 -44
60 -78 62 -76 4 3 -88 188 -140 282 -16 29 -30 43 -44 43 -15 0 -29 15 -48 50
-27 50 -39 59 -51 40z"/>
<path d="M4590 2956 c0 -2 8 -10 18 -17 15 -13 16 -12 3 4 -13 16 -21 21 -21
13z"/>
<path d="M3469 2861 c14 -50 27 -86 29 -81 4 11 -37 152 -48 163 -4 5 5 -32
19 -82z"/>
<path d="M2671 2903 c2 -20 28 -76 29 -63 0 10 6 6 15 -10 8 -14 14 -21 15
-17 0 10 -50 97 -56 97 -2 0 -4 -3 -3 -7z"/>
<path d="M1895 2839 c-4 -6 -5 -12 -2 -15 2 -3 7 2 10 11 7 17 1 20 -8 4z"/>
<path d="M3752 2825 c0 -16 2 -22 5 -12 2 9 2 23 0 30 -3 6 -5 -1 -5 -18z"/>
<path d="M4230 2798 c0 -20 4 -39 9 -42 16 -10 19 -55 4 -68 -10 -8 -11 -14
-3 -22 8 -8 13 -7 19 3 7 11 13 7 25 -17 21 -41 21 -59 -1 -41 -20 17 -18 13
31 -79 42 -79 58 -92 27 -21 -18 40 -20 68 -3 43 4 -5 13 -9 20 -8 6 1 16 2
21 3 8 1 -78 171 -127 251 l-22 35 0 -37z"/>
<path d="M1232 2780 c0 -14 2 -19 5 -12 2 6 2 18 0 25 -3 6 -5 1 -5 -13z"/>
<path d="M2800 2785 c0 -5 5 -17 10 -25 5 -8 10 -10 10 -5 0 6 -5 17 -10 25
-5 8 -10 11 -10 5z"/>
<path d="M3518 2727 c-2 -42 1 -63 8 -60 9 3 8 112 -1 121 -2 2 -5 -25 -7 -61z"/>
<path d="M3772 2770 c0 -14 2 -19 5 -12 2 6 2 18 0 25 -3 6 -5 1 -5 -13z"/>
<path d="M2203 2745 c0 -22 2 -30 4 -17 2 12 2 30 0 40 -3 9 -5 -1 -4 -23z"/>
<path d="M4196 2767 c3 -10 9 -15 12 -12 3 3 0 11 -7 18 -10 9 -11 8 -5 -6z"/>
<path d="M1504 2720 c14 -106 19 -129 25 -125 4 2 16 -13 25 -33 10 -20 37
-68 60 -107 22 -38 44 -79 48 -90 6 -19 6 -19 7 1 1 12 -7 32 -18 45 -24 31
-56 92 -53 102 1 4 -3 7 -9 7 -5 0 -7 5 -4 10 3 6 2 10 -3 10 -13 0 -31 42
-58 135 -13 44 -22 64 -20 45z"/>
<path d="M3307 2732 c-9 -10 -17 -28 -17 -40 0 -23 14 -29 26 -11 4 8 9 7 15
-2 6 -10 9 -11 9 -1 0 18 17 15 26 -5 4 -10 10 -56 14 -103 l7 -85 1 90 c1
108 -15 169 -44 173 -11 2 -28 -6 -37 -16z"/>
<path d="M3900 2740 c0 -5 5 -10 11 -10 5 0 7 5 4 10 -3 6 -8 10 -11 10 -2 0
-4 -4 -4 -10z"/>
<path d="M3731 2724 c0 -11 3 -14 6 -6 3 7 2 16 -1 19 -3 4 -6 -2 -5 -13z"/>
<path d="M3762 2710 c0 -14 2 -19 5 -12 2 6 2 18 0 25 -3 6 -5 1 -5 -13z"/>
<path d="M1456 2685 c10 -68 64 -225 84 -245 11 -11 22 -30 24 -44 2 -13 12
-37 21 -52 15 -27 15 -27 9 -4 -15 55 -43 124 -44 110 -1 -19 -43 88 -76 195
-13 44 -22 62 -18 40z"/>
<path d="M2386 2711 c-4 -5 3 -7 14 -4 23 6 26 13 6 13 -8 0 -17 -4 -20 -9z"/>
<path d="M3830 2711 c0 -7 14 -32 30 -56 34 -49 38 -64 13 -44 -52 41 187
-248 281 -340 91 -89 72 -53 -22 43 -47 48 -87 95 -88 103 -2 8 -12 25 -23 37
-23 24 -28 42 -9 30 7 -5 8 -3 3 6 -6 10 -4 12 8 7 24 -9 21 0 -4 14 -13 7
-19 7 -15 1 3 -6 2 -13 -3 -16 -5 -4 -18 7 -27 24 -10 16 -22 30 -27 30 -4 0
-6 4 -3 9 3 5 -1 11 -9 15 -8 3 -15 0 -15 -6 0 -7 -5 -6 -15 2 -18 15 -20 34
-2 23 24 -15 55 -10 60 9 3 10 1 15 -5 12 -6 -4 -8 1 -4 14 4 11 2 23 -3 27
-7 4 -9 -1 -5 -12 3 -10 -2 -7 -10 7 -8 14 -15 19 -16 12 0 -7 -6 -10 -12 -7
-7 4 -3 -3 10 -14 22 -19 23 -41 1 -41 -6 0 -7 5 -3 12 4 6 3 8 -3 5 -5 -3
-26 19 -46 50 -20 31 -37 50 -37 44z m141 -208 c61 -80 71 -93 67 -93 -6 0
-118 138 -118 144 0 13 10 3 51 -51z"/>
<path d="M3242 2665 c-28 -37 -32 -47 -22 -62 11 -17 11 -17 5 1 -4 13 5 32
26 58 17 22 29 41 28 43 -2 2 -19 -17 -37 -40z"/>
<path d="M3885 2701 c-3 -5 0 -13 6 -17 7 -4 9 -3 5 4 -3 6 3 12 16 15 23 4
23 4 1 6 -12 0 -24 -3 -28 -8z"/>
<path d="M2326 2692 c-2 -4 0 -14 6 -22 8 -12 9 -12 5 2 -3 9 -1 19 6 22 9 3
9 5 0 5 -6 1 -14 -3 -17 -7z"/>
<path d="M3721 2684 c0 -11 3 -14 6 -6 3 7 2 16 -1 19 -3 4 -6 -2 -5 -13z"/>
<path d="M2194 2664 c-18 -14 -18 -14 6 -3 31 14 36 19 24 19 -6 0 -19 -7 -30
-16z"/>
<path d="M2260 2665 c-14 -8 -20 -14 -14 -15 5 0 19 7 30 15 24 18 16 19 -16
0z"/>
<path d="M3751 2654 c0 -11 3 -14 6 -6 3 7 2 16 -1 19 -3 4 -6 -2 -5 -13z"/>
<path d="M3830 2656 c0 -2 8 -10 18 -17 15 -13 16 -12 3 4 -13 16 -21 21 -21
13z"/>
<path d="M916 2595 c-5 -33 -9 -85 -10 -115 -1 -31 -11 -75 -24 -102 -12 -27
-17 -48 -12 -48 4 0 16 23 25 50 17 52 23 58 43 38 16 -16 15 35 -2 152 l-12
85 -8 -60z"/>
<path d="M2160 2619 c-30 -16 -59 -35 -65 -41 -5 -6 15 3 46 20 31 18 59 32
62 32 3 0 8 -24 10 -52 l3 -53 2 63 c1 34 1 62 0 62 -2 0 -28 -14 -58 -31z"/>
<path d="M2343 2603 c0 -24 4 -43 9 -43 10 0 9 26 -2 60 -7 21 -8 17 -7 -17z"/>
<path d="M3341 2624 c0 -11 3 -14 6 -6 3 7 2 16 -1 19 -3 4 -6 -2 -5 -13z"/>
<path d="M3741 2614 c0 -11 3 -14 6 -6 3 7 2 16 -1 19 -3 4 -6 -2 -5 -13z"/>
<path d="M3630 2616 c0 -2 7 -7 16 -10 8 -3 12 -2 9 4 -6 10 -25 14 -25 6z"/>
<path d="M869 2601 c8 -5 11 -17 7 -32 -7 -24 -7 -24 8 1 21 34 20 40 -6 40
-17 0 -19 -3 -9 -9z"/>
<path d="M2765 2600 c-4 -6 -11 -8 -16 -4 -5 3 -8 0 -7 -7 2 -8 -13 -14 -42
-16 -61 -5 -148 -28 -223 -57 -34 -14 -79 -28 -99 -31 -23 -5 -35 -11 -32 -19
3 -7 -10 -25 -29 -39 -19 -14 -44 -45 -56 -69 -12 -24 -15 -35 -8 -25 8 9 22
17 32 17 16 0 16 -2 1 -22 -9 -13 -21 -31 -27 -42 -11 -18 -10 -18 12 -2 34
24 52 21 47 -8 -7 -36 15 -23 41 25 13 22 25 38 28 35 3 -3 15 6 26 20 13 17
23 22 29 16 7 -7 18 -2 32 15 l22 26 23 -62 c21 -58 24 -61 49 -55 39 9 51 23
30 35 -10 6 -18 16 -18 23 0 8 -9 16 -21 19 -16 4 -19 10 -14 29 12 37 33 55
73 62 20 3 52 9 71 12 22 4 36 2 41 -6 4 -7 13 -9 19 -6 6 4 9 12 6 17 -4 5 5
9 19 9 24 0 28 -12 12 -38 -4 -7 -13 -12 -19 -11 -35 4 -39 -3 -12 -20 17 -10
36 -16 43 -13 10 4 11 7 2 12 -15 10 4 50 24 50 16 0 29 -52 15 -60 -12 -8 1
-78 16 -83 17 -7 47 48 49 91 0 24 6 36 14 35 7 -2 12 8 12 25 0 43 -11 72
-27 72 -8 0 -11 5 -7 11 3 6 -1 10 -12 9 -52 -6 -94 1 -94 14 0 19 -17 29 -25
16z m-47 -66 c15 -12 15 -14 -8 -15 -28 -2 -29 -2 -85 -14 -22 -5 -47 -9 -57
-10 -9 -1 -23 -7 -32 -14 -25 -21 -19 -2 7 20 52 46 137 62 175 33z m-408
-158 c0 -2 -7 -6 -15 -10 -8 -3 -15 -1 -15 4 0 6 7 10 15 10 8 0 15 -2 15 -4z"/>
<path d="M4820 2591 c5 -11 15 -23 21 -27 6 -3 3 5 -6 20 -20 30 -30 35 -15 7z"/>
<path d="M804 2584 c-18 -14 -18 -15 4 -4 12 6 22 13 22 15 0 8 -5 6 -26 -11z"/>
<path d="M952 2575 c0 -16 2 -22 5 -12 2 9 2 23 0 30 -3 6 -5 -1 -5 -18z"/>
<path d="M3972 2596 c4 -5 4 -14 -2 -20 -5 -7 -5 -17 0 -26 7 -11 10 -12 10
-2 0 7 5 10 10 7 6 -4 8 -10 6 -14 -3 -4 1 -8 9 -8 13 0 13 3 0 17 -8 9 -13
19 -10 22 3 3 -3 11 -12 19 -10 7 -15 9 -11 5z"/>
<path d="M4869 2583 c5 -10 22 -31 38 -48 15 -16 27 -34 25 -40 -2 -5 0 -7 4
-2 4 4 21 -5 38 -20 16 -16 -1 7 -39 50 -69 78 -83 91 -66 60z"/>
<path d="M3154 2566 c0 -13 4 -22 8 -20 4 2 10 -1 14 -7 3 -6 1 -15 -6 -19 -8
-5 -4 -9 11 -13 13 -4 24 -5 25 -4 2 1 -10 21 -26 45 -24 35 -28 38 -26 18z"/>
<path d="M2518 2573 c6 -2 18 -2 25 0 6 3 1 5 -13 5 -14 0 -19 -2 -12 -5z"/>
<path d="M3805 2542 c-3 -22 -1 -50 6 -67 7 -17 11 -36 10 -44 -2 -8 2 -10 11
-5 11 6 11 5 0 -8 -10 -12 -10 -18 -2 -23 7 -4 25 -28 41 -53 22 -35 26 -49
18 -64 -6 -10 -7 -28 -4 -39 6 -19 5 -20 -17 -9 -21 10 -22 10 -5 -4 18 -14
18 -15 -3 -26 -12 -6 -19 -14 -16 -17 3 -3 12 -1 19 6 18 14 92 1 92 -17 0 -7
-20 -25 -44 -41 -38 -25 -40 -29 -18 -28 14 1 25 7 24 12 -1 6 7 10 18 10 11
0 20 6 20 14 0 8 6 16 14 19 8 3 11 0 7 -6 -3 -5 2 -9 11 -8 10 0 37 -27 66
-67 41 -55 48 -70 36 -78 -11 -6 -8 -9 11 -9 25 -1 25 -1 3 -10 -31 -13 -29
-23 4 -17 20 4 32 -2 51 -24 13 -16 34 -34 46 -40 19 -9 19 -9 4 4 -10 8 -15
17 -11 20 3 4 2 7 -4 7 -5 0 -24 20 -42 45 -18 25 -29 45 -24 45 4 0 -5 12
-20 26 -15 14 -38 46 -51 72 -12 26 -33 64 -45 85 -35 58 -18 44 35 -28 45
-60 82 -88 67 -48 -5 12 -3 14 7 8 8 -5 -19 30 -59 78 -77 92 -100 112 -55 50
l26 -38 -30 35 c-16 19 -28 39 -25 46 2 7 -1 15 -8 20 -8 5 -10 3 -4 -6 5 -9
4 -11 -4 -6 -6 4 -9 12 -6 17 4 5 -5 24 -19 42 -14 18 -43 69 -66 114 -22 45
-45 85 -50 88 -4 3 -11 -12 -15 -33z m123 -295 c2 -9 -3 -17 -10 -17 -8 0 -14
9 -15 21 -2 24 20 20 25 -4z m127 -37 c10 -11 16 -20 13 -20 -3 0 -13 9 -23
20 -10 11 -16 20 -13 20 3 0 13 -9 23 -20z m-88 -10 c7 -8 12 -19 12 -25 0 -5
-6 -2 -13 8 -7 9 -25 17 -39 17 -14 0 -28 4 -31 9 -9 15 59 7 71 -9z m128 -40
c10 -11 16 -20 13 -20 -3 0 -13 9 -23 20 -10 11 -16 20 -13 20 3 0 13 -9 23
-20z"/>
<path d="M2991 2556 c-10 -11 -9 -14 4 -12 8 1 21 8 27 14 9 9 8 12 -4 12 -8
0 -21 -6 -27 -14z"/>
<path d="M3523 2533 c-56 -73 -67 -95 -52 -104 8 -5 16 -9 19 -9 3 0 10 -10
15 -22 6 -12 19 -23 30 -24 11 -2 21 -8 23 -13 2 -6 16 -11 30 -11 27 1 27 1
-5 15 -27 11 -33 20 -33 45 0 34 6 36 40 14 19 -12 18 -9 -6 14 -17 16 -38 32
-45 34 -12 4 -12 7 0 21 40 49 105 -21 121 -127 l8 -51 1 60 c1 67 -22 129
-63 170 -34 34 -49 32 -83 -12z"/>
<path d="M2423 2550 c-35 -14 -27 -20 10 -8 17 6 34 13 36 14 8 7 -24 3 -46
-6z"/>
<path d="M490 2513 c-36 -12 -84 -22 -107 -22 -39 -1 -73 -20 -73 -42 0 -5 -5
-9 -11 -9 -7 0 -9 9 -6 21 5 18 2 20 -16 15 -12 -3 -29 -6 -38 -6 -20 0 -69
-45 -86 -78 -16 -29 -11 -39 7 -17 16 20 47 19 58 -1 6 -11 11 -13 16 -5 10
16 26 14 26 -3 0 -9 12 -16 27 -18 19 -2 32 -12 41 -30 7 -16 20 -28 28 -28 7
0 44 29 81 65 37 36 63 65 58 65 -5 0 11 20 35 45 44 44 58 72 36 71 -6 0 -40
-10 -76 -23z"/>
<path d="M2138 2485 c-5 -33 -10 -71 -13 -85 -3 -14 2 -5 10 20 9 25 14 63 13
85 -3 36 -4 34 -10 -20z"/>
<path d="M1975 2386 c-1 -88 2 -126 7 -101 9 53 10 233 1 238 -5 3 -8 -59 -8
-137z"/>
<path d="M2272 2505 c0 -16 2 -22 5 -12 2 9 2 23 0 30 -3 6 -5 -1 -5 -18z"/>
<path d="M2331 2518 c-1 -20 14 -24 25 -6 4 6 3 8 -4 4 -5 -3 -13 0 -15 6 -3
8 -6 6 -6 -4z"/>
<path d="M846 2505 c-9 -26 -7 -32 5 -12 6 10 9 21 6 23 -2 3 -7 -2 -11 -11z"/>
<path d="M2960 2497 c0 -14 5 -29 10 -32 7 -4 8 3 4 22 -9 38 -14 42 -14 10z"/>
<path d="M3085 2510 c-3 -6 1 -7 9 -4 18 7 21 14 7 14 -6 0 -13 -4 -16 -10z"/>
<path d="M4870 2516 c0 -2 8 -10 18 -17 15 -13 16 -12 3 4 -13 16 -21 21 -21
13z"/>
<path d="M964 2380 c0 -74 1 -105 3 -67 2 37 2 97 0 135 -2 37 -3 6 -3 -68z"/>
<path d="M1415 2491 c12 -39 35 -91 40 -91 5 0 -34 102 -42 110 -3 3 -2 -6 2
-19z"/>
<path d="M2305 2480 c-3 -6 1 -7 9 -4 18 7 21 14 7 14 -6 0 -13 -4 -16 -10z"/>
<path d="M3330 2460 c42 -37 50 -38 49 -2 -1 16 -3 20 -6 10 -5 -20 -18 -23
-28 -8 -3 5 -16 15 -28 20 -14 7 -9 -1 13 -20z"/>
<path d="M4040 2471 c0 -6 4 -13 10 -16 6 -3 7 1 4 9 -7 18 -14 21 -14 7z"/>
<path d="M4900 2476 c0 -2 8 -10 18 -17 15 -13 16 -12 3 4 -13 16 -21 21 -21
13z"/>
<path d="M1651 2454 c0 -11 3 -14 6 -6 3 7 2 16 -1 19 -3 4 -6 -2 -5 -13z"/>
<path d="M1962 2430 c0 -19 2 -27 5 -17 2 9 2 25 0 35 -3 9 -5 1 -5 -18z"/>
<path d="M4960 2456 c0 -2 8 -10 18 -17 15 -13 16 -12 3 4 -13 16 -21 21 -21
13z"/>
<path d="M3124 2438 c-11 -18 -18 -168 -8 -168 5 0 7 23 6 50 -2 29 1 57 7 64
17 20 71 3 131 -40 47 -34 49 -34 55 -14 4 12 12 19 19 17 9 -4 11 3 7 21 -4
20 -6 22 -9 9 -3 -17 -6 -16 -35 6 -75 57 -156 83 -173 55z m176 -84 c0 -20
-9 -17 -31 9 -26 31 -23 40 6 21 14 -9 25 -23 25 -30z"/>
<path d="M2565 2431 c-3 -5 4 -12 15 -16 17 -6 25 -23 21 -47 0 -5 3 -8 8 -8
5 0 13 -10 17 -22 7 -22 28 -48 38 -48 3 0 -3 17 -14 37 -11 20 -16 40 -11 43
15 10 19 49 5 54 -8 3 -14 1 -14 -4 0 -6 -4 -10 -10 -10 -5 0 -10 7 -10 15 0
16 -35 21 -45 6z"/>
<path d="M4945 2420 c10 -11 20 -20 23 -20 3 0 -3 9 -13 20 -10 11 -20 20 -23
20 -3 0 3 -9 13 -20z"/>
<path d="M2680 2430 c-1 -3 -4 -16 -5 -30 -3 -21 1 -26 22 -28 22 -2 24 0 13
13 -10 12 -10 18 1 33 13 15 12 16 -3 4 -13 -10 -17 -10 -21 0 -3 7 -6 11 -7
8z"/>
<path d="M2151 2398 c-1 -15 4 -30 9 -33 12 -7 12 12 0 40 -8 18 -9 17 -9 -7z"/>
<path d="M3442 2403 c-5 -10 -12 -31 -16 -47 -6 -26 -6 -27 9 -12 9 9 15 22
12 29 -2 6 0 20 5 30 5 9 6 17 4 17 -3 0 -9 -8 -14 -17z"/>
<path d="M1952 2365 c0 -16 2 -22 5 -12 2 9 2 23 0 30 -3 6 -5 -1 -5 -18z"/>
<path d="M4970 2386 c0 -2 8 -10 18 -17 15 -13 16 -12 3 4 -13 16 -21 21 -21
13z"/>
<path d="M3033 2345 c0 -22 2 -30 4 -17 2 12 2 30 0 40 -3 9 -5 -1 -4 -23z"/>
<path d="M1470 2364 c0 -6 20 -42 44 -80 33 -50 42 -72 34 -81 -6 -7 -7 -13
-4 -13 4 0 -5 -17 -21 -37 l-27 -38 30 28 c17 15 33 25 36 22 2 -3 5 2 5 10 0
8 -4 15 -9 15 -5 0 -6 4 -3 10 3 5 18 -3 33 -18 15 -16 21 -20 13 -10 -7 9
-11 24 -8 32 4 9 1 13 -6 11 -13 -5 -34 20 -84 104 -18 30 -33 50 -33 45z"/>
<path d="M2670 2343 c0 -1 7 -9 16 -18 14 -13 19 -14 25 -3 13 20 11 23 -16
23 -14 0 -25 -1 -25 -2z"/>
<path d="M3146 2337 c3 -10 9 -15 12 -12 3 3 0 11 -7 18 -10 9 -11 8 -5 -6z"/>
<path d="M1733 2290 c0 -30 2 -43 4 -27 2 15 2 39 0 55 -2 15 -4 2 -4 -28z"/>
<path d="M1941 2314 c0 -11 3 -14 6 -6 3 7 2 16 -1 19 -3 4 -6 -2 -5 -13z"/>
<path d="M834 2273 c-28 -71 -28 -72 5 -18 32 53 37 65 22 65 -4 0 -17 -21
-27 -47z"/>
<path d="M1904 2293 c-3 -16 -10 -44 -15 -63 -12 -49 -11 -57 5 -35 8 11 12
25 9 32 -3 7 2 13 12 13 9 0 13 5 9 11 -4 7 -7 25 -6 40 1 37 -6 37 -14 2z"/>
<path d="M3499 2303 c-13 -17 -13 -17 6 -3 11 8 22 16 24 17 2 2 0 3 -6 3 -6
0 -17 -8 -24 -17z"/>
<path d="M1672 2280 c0 -19 2 -27 5 -17 2 9 2 25 0 35 -3 9 -5 1 -5 -18z"/>
<path d="M2820 2295 c-7 -9 -10 -18 -7 -21 3 -3 10 4 17 15 13 25 8 27 -10 6z"/>
<path d="M3690 2291 c-5 -11 -10 -27 -10 -37 0 -16 -1 -16 -19 0 -17 15 -19
15 -25 1 -3 -9 -10 -13 -16 -10 -5 3 -10 1 -10 -6 0 -7 -10 -9 -25 -7 -13 3
-22 1 -19 -3 7 -13 62 -11 69 1 4 6 16 10 28 8 15 -2 23 3 25 17 2 11 11 28
20 38 9 10 11 17 4 17 -6 0 -16 -9 -22 -19z"/>
<path d="M3818 2280 c35 -32 52 -38 52 -17 0 12 -60 47 -78 47 -4 0 8 -14 26
-30z"/>
<path d="M3362 2257 c-1 -24 2 -55 7 -68 7 -19 9 -11 12 44 3 40 0 67 -6 67
-5 0 -11 -20 -13 -43z"/>
<path d="M3868 2293 c7 -3 16 -2 19 1 4 3 -2 6 -13 5 -11 0 -14 -3 -6 -6z"/>
<path d="M2575 2270 c-9 -14 11 -37 47 -56 l29 -15 -24 37 c-25 41 -41 51 -52
34z"/>
<path d="M3426 2229 c7 -54 14 -77 14 -45 0 15 2 15 23 2 12 -8 33 -17 47 -20
25 -6 25 -6 3 5 -13 7 -23 16 -23 21 0 5 5 6 12 2 7 -5 8 -3 4 5 -5 7 -11 10
-14 7 -3 -3 -12 3 -19 14 -8 11 -19 18 -24 15 -5 -3 -6 0 -3 8 3 8 -2 20 -11
27 -15 12 -15 8 -9 -41z"/>
<path d="M4215 2263 c0 -12 8 -29 16 -39 12 -16 12 -17 -1 -9 -8 5 1 -9 20
-31 22 -26 41 -39 53 -36 9 2 17 9 17 14 0 5 -4 6 -10 3 -5 -3 -10 0 -10 7 0
7 -9 21 -20 33 -11 11 -30 33 -43 49 -21 26 -24 27 -22 9z"/>
<path d="M3120 2245 c0 -5 5 -17 10 -25 5 -8 10 -10 10 -5 0 6 -5 17 -10 25
-5 8 -10 11 -10 5z"/>
<path d="M951 2224 c0 -11 3 -14 6 -6 3 7 2 16 -1 19 -3 4 -6 -2 -5 -13z"/>
<path d="M1682 2210 c0 -14 2 -19 5 -12 2 6 2 18 0 25 -3 6 -5 1 -5 -13z"/>
<path d="M1721 2193 c-1 -23 -5 -45 -11 -48 -5 -3 -10 -2 -10 3 0 6 -8 13 -17
16 -13 5 -11 0 7 -21 14 -15 26 -30 27 -32 1 -1 12 4 25 13 21 15 21 16 2 16
-17 0 -19 5 -16 34 2 19 2 41 -1 48 -3 7 -6 -6 -6 -29z"/>
<path d="M2696 2215 c-16 -12 -17 -15 -4 -15 8 0 21 7 28 15 16 19 1 19 -24 0z"/>
<path d="M3268 2223 c7 -3 16 -2 19 1 4 3 -2 6 -13 5 -11 0 -14 -3 -6 -6z"/>
<path d="M3566 2188 c-8 -5 -13 -15 -10 -22 3 -8 0 -17 -5 -21 -6 -3 -9 -11
-6 -16 4 -5 1 -9 -4 -9 -19 0 -12 -29 10 -40 17 -10 20 -18 14 -53 l-6 -42 15
33 c8 17 18 32 21 32 3 0 1 -9 -5 -19 -14 -27 -13 -41 5 -41 8 0 15 8 16 18 0
9 2 27 3 39 2 15 -4 23 -20 27 -13 4 -26 18 -32 35 -9 25 -7 32 15 53 19 18
35 23 74 22 27 0 49 2 49 6 0 10 -116 8 -134 -2z"/>
<path d="M4825 2180 c10 -11 20 -20 23 -20 3 0 -3 9 -13 20 -10 11 -20 20 -23
20 -3 0 3 -9 13 -20z"/>
<path d="M3341 2148 c-7 -24 -24 -61 -37 -83 l-25 -40 25 30 c25 29 63 122 54
131 -3 2 -10 -15 -17 -38z"/>
<path d="M4865 2180 c-3 -5 -1 -10 4 -10 6 0 11 5 11 10 0 6 -2 10 -4 10 -3 0
-8 -4 -11 -10z"/>
<path d="M714 2121 c-58 -86 -65 -93 -81 -80 -9 9 -13 9 -13 0 0 -6 5 -11 10
-11 19 0 10 -16 -40 -72 -27 -31 -50 -59 -50 -62 0 -3 16 -6 36 -6 l36 0 -21
-32 c-24 -38 -30 -37 -53 11 -9 20 -17 29 -17 20 -1 -8 -13 -26 -27 -40 -14
-13 -30 -32 -35 -41 -8 -15 -5 -15 25 3 22 13 43 18 56 14 25 -8 25 -16 -2
-51 -13 -15 -17 -25 -10 -20 7 4 28 33 48 64 20 31 62 84 93 117 73 77 104
122 95 136 -4 8 -3 9 4 5 7 -4 12 -2 12 4 0 6 7 18 15 26 11 11 12 20 3 38
-20 45 -43 38 -84 -23z"/>
<path d="M4903 2146 c9 -7 17 -21 17 -30 0 -9 3 -15 8 -14 4 0 15 -2 24 -6 9
-4 25 -3 35 3 17 10 17 10 0 11 -9 0 -27 11 -39 25 -12 14 -31 25 -42 25 -20
-1 -20 -2 -3 -14z"/>
<path d="M894 2113 c-15 -20 -23 -33 -16 -29 13 8 56 66 49 66 -3 0 -17 -17
-33 -37z"/>
<path d="M4300 2129 c0 -5 5 -7 10 -4 6 3 10 8 10 11 0 2 -4 4 -10 4 -5 0 -10
-5 -10 -11z"/>
<path d="M4326 2117 c-16 -11 -15 -14 11 -36 15 -13 36 -31 47 -40 18 -16 18
-15 0 18 -41 74 -39 72 -58 58z"/>
<path d="M1605 2100 c10 -11 20 -20 23 -20 3 0 -3 9 -13 20 -10 11 -20 20 -23
20 -3 0 3 -9 13 -20z"/>
<path d="M1350 2107 c0 -13 52 -112 61 -115 5 -2 6 -9 3 -14 -4 -7 -2 -8 5 -4
9 6 9 11 1 21 -6 7 -24 37 -40 66 -16 30 -30 50 -30 46z"/>
<path d="M1463 2075 c-3 -9 -3 -18 -1 -21 3 -3 8 4 11 16 6 23 -1 27 -10 5z"/>
<path d="M3450 2061 c0 -6 4 -13 10 -16 6 -3 7 1 4 9 -7 18 -14 21 -14 7z"/>
<path d="M3648 2058 c6 -6 18 -8 28 -6 14 3 12 5 -9 10 -19 3 -25 2 -19 -4z"/>
<path d="M1689 2051 c12 -8 9 -12 -15 -21 -54 -22 -79 -36 -79 -45 0 -6 -4
-16 -9 -24 -7 -10 -5 -12 5 -7 8 4 6 1 -3 -7 -10 -8 -15 -17 -11 -20 3 -4 -1
-7 -10 -7 -9 0 -17 3 -17 8 0 4 -19 22 -43 41 -30 25 -36 27 -18 9 13 -16 20
-32 16 -39 -5 -7 -4 -10 2 -6 6 4 22 -7 36 -23 17 -18 22 -32 16 -36 -6 -3 -9
-15 -6 -25 3 -10 0 -22 -5 -26 -7 -3 -8 -1 -4 5 15 24 -2 11 -19 -14 -16 -25
-16 -25 4 -15 30 17 52 13 58 -9 3 -11 10 -17 16 -13 5 3 22 6 38 5 36 -1 44
23 20 57 -20 28 -19 71 2 71 6 0 19 7 29 17 17 15 18 15 18 -4 0 -11 18 -48
40 -82 33 -51 44 -61 60 -56 14 5 18 2 15 -8 -8 -18 44 -42 59 -27 7 7 4 10
-10 10 -20 0 -64 48 -64 70 0 6 11 15 25 20 22 8 24 13 15 31 -9 15 -8 24 1
35 11 14 15 13 29 -7 19 -25 35 -20 43 13 6 23 6 23 -15 -2 l-21 -25 7 38 c4
22 3 37 -1 34 -5 -3 -15 -2 -23 4 -12 7 -9 9 10 9 23 1 23 2 -7 15 -38 16 -43
25 -10 18 20 -4 21 -3 3 7 -15 10 -16 14 -5 22 9 5 -14 8 -64 6 -42 -2 -77 0
-77 5 0 4 -10 7 -22 7 -18 0 -20 -2 -9 -9z m155 -70 c3 -4 -5 -13 -19 -19 -18
-8 -26 -8 -35 3 -9 10 -7 14 7 18 30 8 42 7 47 -2z m6 -37 c0 -8 -4 -12 -10
-9 -5 3 -10 10 -10 16 0 5 5 9 10 9 6 0 10 -7 10 -16z m-38 -59 c3 -14 1 -28
-3 -31 -5 -3 -9 -2 -9 3 0 4 -3 18 -6 31 -4 12 -2 22 4 22 5 0 12 -11 14 -25z"/>
<path d="M3378 2055 c-3 -4 -4 -30 -1 -58 5 -52 4 -52 -45 -101 -46 -44 -51
-46 -56 -28 -11 34 -36 16 -26 -18 6 -20 4 -32 -4 -40 -7 -5 -16 -32 -19 -60
-3 -27 -13 -64 -22 -82 -13 -26 -13 -29 -1 -14 14 17 15 16 21 -20 11 -63 13
-62 15 6 2 52 4 59 10 35 4 -17 5 3 2 48 -4 66 -2 80 14 98 l19 21 6 -28 c7
-29 7 -29 8 5 1 25 11 43 41 72 22 22 40 33 40 26 0 -6 5 -44 10 -84 7 -58 17
-82 45 -123 19 -27 33 -50 30 -50 -3 0 2 -14 11 -31 23 -45 -2 -25 -37 29 -26
42 -29 44 -23 17 9 -44 55 -145 66 -145 5 0 7 -4 4 -9 -10 -16 105 -161 128
-161 5 0 -6 17 -25 38 l-34 37 38 -34 c20 -20 37 -44 37 -56 0 -13 6 -22 15
-22 8 0 15 4 15 8 0 4 11 6 25 5 13 -2 22 1 19 5 -3 5 2 9 10 9 26 0 19 13
-39 70 -56 56 -77 93 -27 49 27 -24 27 -23 -2 8 -16 18 -32 30 -36 28 -12 -7
-33 23 -25 35 4 6 1 9 -6 8 -7 -2 -13 2 -14 7 0 6 -16 32 -35 60 -38 55 -100
190 -100 218 0 10 -4 15 -10 12 -6 -3 -7 1 -4 9 3 9 -1 46 -10 84 -8 37 -17
80 -18 95 -2 16 -6 26 -10 22z m152 -580 c13 -14 21 -25 18 -25 -2 0 -15 11
-28 25 -13 14 -21 25 -18 25 2 0 15 -11 28 -25z m130 -77 c0 -6 -6 -5 -15 2
-8 7 -15 14 -15 16 0 2 7 1 15 -2 8 -4 15 -11 15 -16z"/>
<path d="M4176 2049 c3 -6 2 -14 -4 -18 -6 -4 14 -34 50 -75 49 -54 59 -70 47
-78 -12 -8 -11 -9 1 -5 9 3 35 -12 60 -34 38 -33 43 -40 30 -50 -13 -9 -13
-10 2 -5 11 3 34 -11 66 -40 92 -82 61 -45 -65 79 -69 67 -129 130 -134 140
-18 32 9 18 73 -39 120 -107 143 -117 38 -16 -93 90 -133 122 -115 92 10 -16
-15 -12 -32 6 -13 13 -14 17 -3 24 13 8 6 30 -11 30 -6 0 -7 -5 -3 -11z"/>
<path d="M3140 2046 c0 -2 8 -10 18 -17 15 -13 16 -12 3 4 -13 16 -21 21 -21
13z"/>
<path d="M1450 2031 c0 -6 4 -13 10 -16 6 -3 7 1 4 9 -7 18 -14 21 -14 7z"/>
<path d="M4887 2010 c18 -19 34 -32 36 -29 2 2 -12 17 -32 33 l-36 30 32 -34z"/>
<path d="M3460 2009 c0 -5 3 -9 8 -10 57 -6 70 -5 64 10 -3 9 -7 10 -9 4 -3
-8 -14 -8 -34 -3 -17 5 -29 5 -29 -1z"/>
<path d="M3888 2003 c12 -2 30 -2 40 0 9 3 -1 5 -23 4 -22 0 -30 -2 -17 -4z"/>
<path d="M3973 1993 c15 -2 37 -2 50 0 12 2 0 4 -28 4 -27 0 -38 -2 -22 -4z"/>
<path d="M4370 1994 c0 -6 23 -32 51 -59 31 -30 47 -41 39 -27 -6 13 -19 31
-29 40 -41 39 -61 55 -61 46z"/>
<path d="M85 1960 c-27 -17 -54 -32 -60 -34 -11 -5 23 -36 39 -36 6 0 2 7 -8
15 -18 14 -18 15 -2 15 9 0 33 16 53 35 43 42 42 42 -22 5z"/>
<path d="M1460 1976 c0 -2 8 -10 18 -17 15 -13 16 -12 3 4 -13 16 -21 21 -21
13z"/>
<path d="M1910 1971 c0 -5 7 -12 16 -15 12 -5 14 -13 9 -34 -5 -20 -4 -24 5
-15 16 15 3 73 -16 73 -8 0 -14 -4 -14 -9z"/>
<path d="M3730 1955 c-9 -11 -4 -17 26 -30 21 -9 45 -22 54 -29 13 -11 62 -34
50 -23 -3 2 -31 25 -62 50 -47 38 -58 44 -68 32z"/>
<path d="M3988 1963 c12 -2 30 -2 40 0 9 3 -1 5 -23 4 -22 0 -30 -2 -17 -4z"/>
<path d="M3790 1955 c0 -7 61 -37 66 -33 2 3 -12 12 -31 21 -19 9 -35 15 -35
12z"/>
<path d="M3880 1910 c8 -5 20 -10 25 -10 6 0 3 5 -5 10 -8 5 -19 10 -25 10 -5
0 -3 -5 5 -10z"/>
<path d="M1966 1885 c8 -37 14 -45 14 -19 0 10 -5 26 -10 34 -8 11 -9 7 -4
-15z"/>
<path d="M3930 1890 c8 -5 20 -10 25 -10 6 0 3 5 -5 10 -8 5 -19 10 -25 10 -5
0 -3 -5 5 -10z"/>
<path d="M632 1864 c-12 -8 -22 -21 -22 -28 0 -7 -23 -60 -51 -117 -28 -57
-46 -99 -41 -94 9 9 142 255 138 255 -1 0 -12 -7 -24 -16z"/>
<path d="M1326 1835 c9 -22 21 -53 27 -69 9 -27 11 -28 17 -10 8 19 -6 49 -41
95 l-20 24 17 -40z"/>
<path d="M4038 1853 c7 -3 16 -2 19 1 4 3 -2 6 -13 5 -11 0 -14 -3 -6 -6z"/>
<path d="M860 1819 c0 -17 -4 -38 -9 -47 -18 -33 -21 -119 -6 -132 12 -10 15
-10 15 1 1 8 3 58 6 112 3 53 3 97 0 97 -3 0 -6 -14 -6 -31z"/>
<path d="M1275 1810 c-3 -6 1 -13 9 -16 9 -3 13 -10 10 -15 -3 -5 0 -9 6 -9 6
0 8 -5 5 -10 -4 -6 -1 -9 6 -8 7 2 17 -6 23 -17 6 -12 21 -34 33 -50 19 -26
22 -27 23 -10 0 15 6 11 25 -18 22 -32 30 -36 52 -31 26 7 26 6 19 -37 -7 -44
-23 -72 -36 -64 -4 2 -15 -2 -25 -9 -23 -17 -10 -39 18 -31 14 4 18 3 9 -2
-17 -13 48 -43 102 -47 22 -2 31 -2 18 1 -23 5 -39 26 -53 75 -11 41 10 32 37
-16 18 -32 23 -35 34 -21 10 12 10 19 -3 38 -13 21 -12 28 15 89 32 72 32 106
0 89 -17 -9 -30 -33 -64 -116 l-12 -30 -4 33 c-2 18 -8 30 -13 27 -8 -5 -14
24 -10 48 1 5 -3 6 -8 3 -5 -3 -12 1 -15 10 -4 12 -2 15 9 10 10 -4 21 7 35
34 24 48 25 54 4 46 -10 -4 -25 1 -36 11 -17 16 -18 16 -12 0 5 -14 1 -16 -25
-11 -21 5 -31 3 -31 -6 0 -10 -4 -9 -17 1 -17 13 -17 12 -2 -6 9 -11 20 -36
23 -55 7 -33 6 -34 -9 -15 -9 11 -20 19 -25 18 -5 -2 -30 27 -56 62 -26 36
-49 65 -50 65 -2 0 -6 -5 -9 -10z"/>
<path d="M971 1783 c-1 -17 4 -35 9 -38 12 -7 12 22 0 50 -7 17 -9 15 -9 -12z"/>
<path d="M1431 1784 c0 -11 3 -14 6 -6 3 7 2 16 -1 19 -3 4 -6 -2 -5 -13z"/>
<path d="M1919 1783 c-13 -16 -12 -17 4 -4 9 7 17 15 17 17 0 8 -8 3 -21 -13z"/>
<path d="M4285 1780 c10 -11 25 -20 33 -20 12 0 12 4 -3 20 -10 11 -25 20 -33
20 -12 0 -12 -4 3 -20z"/>
<path d="M1676 1745 c37 -57 37 -159 -2 -250 -8 -19 -14 -37 -14 -40 0 -3 -12
-12 -27 -20 -24 -12 -25 -14 -8 -15 11 0 63 -11 115 -24 52 -14 97 -23 99 -20
2 2 -1 4 -8 4 -6 0 -16 11 -21 25 -9 25 -74 60 -94 51 -7 -3 -6 -5 2 -5 6 -1
12 -10 12 -21 0 -21 -4 -23 -35 -14 -21 5 -20 7 8 63 16 32 31 78 34 101 l6
43 42 -89 c23 -49 61 -110 83 -135 23 -26 39 -49 36 -51 -3 -3 5 -8 16 -11 16
-4 11 6 -23 41 -51 55 -89 117 -121 198 -13 33 -38 84 -56 114 -18 30 -33 61
-33 68 0 6 -6 12 -14 12 -11 0 -10 -5 3 -25z"/>
<path d="M3301 1754 c0 -11 3 -14 6 -6 3 7 2 16 -1 19 -3 4 -6 -2 -5 -13z"/>
<path d="M4225 1740 c5 -9 1 -10 -16 -6 -20 6 -21 5 -6 -4 22 -14 22 -36 0
-48 -9 -6 -18 -17 -19 -26 -1 -9 2 -14 7 -10 5 3 6 10 3 16 -5 8 -1 9 12 4 10
-4 15 -4 11 0 -4 4 -3 12 2 18 14 19 20 56 9 63 -7 4 -8 1 -3 -7z"/>
<path d="M4355 1712 c21 -23 41 -42 43 -42 8 0 -40 55 -61 68 -12 8 -4 -4 18
-26z"/>
<path d="M3311 1714 c0 -11 3 -14 6 -6 3 7 2 16 -1 19 -3 4 -6 -2 -5 -13z"/>
<path d="M1287 1709 c7 -7 15 -10 18 -7 3 3 -2 9 -12 12 -14 6 -15 5 -6 -5z"/>
<path d="M4266 1656 c5 -13 1 -24 -12 -34 -10 -8 -13 -12 -5 -10 25 7 37 36
23 50 -11 11 -12 9 -6 -6z"/>
<path d="M3863 1642 c10 -10 14 -22 10 -27 -5 -4 -2 -5 5 -1 11 6 10 12 -4 27
-9 10 -19 19 -22 19 -3 0 2 -8 11 -18z"/>
<path d="M4043 1653 c9 -2 25 -2 35 0 9 3 1 5 -18 5 -19 0 -27 -2 -17 -5z"/>
<path d="M439 1633 c-13 -16 -12 -17 4 -4 9 7 17 15 17 17 0 8 -8 3 -21 -13z"/>
<path d="M4118 1639 c24 -13 30 -29 10 -29 -9 0 -9 -3 0 -12 17 -17 15 -29 -3
-22 -11 4 -13 2 -9 -9 3 -8 0 -18 -5 -22 -6 -3 -9 -11 -5 -16 3 -5 -6 -25 -20
-44 -31 -40 -34 -55 -6 -30 23 20 70 108 70 130 0 17 31 20 46 5 6 -6 10 -3
10 10 0 11 -5 19 -10 17 -6 -2 -19 6 -29 17 -10 12 -15 15 -11 7 5 -11 3 -13
-9 -8 -35 14 -51 17 -29 6z"/>
<path d="M1017 1619 c7 -9 10 -18 7 -22 -10 -9 18 -119 42 -168 18 -37 23 -65
24 -135 1 -49 -2 -109 -6 -133 -4 -28 -4 -42 3 -38 6 4 15 -37 22 -106 28
-250 30 -262 25 -157 -3 52 -9 160 -14 240 -6 80 -13 204 -16 275 -4 72 -10
137 -15 145 -6 10 -8 5 -9 -18 0 -51 -22 -34 -36 29 -17 71 -17 76 2 53 15
-19 15 -18 5 2 -5 11 -18 27 -28 35 -16 12 -17 12 -6 -2z"/>
<path d="M4570 1626 c0 -2 8 -10 18 -17 15 -13 16 -12 3 4 -13 16 -21 21 -21
13z"/>
<path d="M95 1590 c-10 -11 -36 -31 -57 -42 -37 -21 -38 -23 -38 -80 0 -62 9
-71 43 -41 13 12 33 17 63 16 24 -1 44 3 44 8 0 14 43 28 55 18 18 -18 34 -8
54 34 19 40 28 97 15 97 -3 0 -20 -11 -38 -25 -31 -24 -137 -75 -156 -75 -5 0
3 20 17 45 28 51 27 77 -2 45z"/>
<path d="M3350 1595 c0 -5 5 -17 10 -25 5 -8 10 -10 10 -5 0 6 -5 17 -10 25
-5 8 -10 11 -10 5z"/>
<path d="M1425 1559 c-4 -6 -5 -12 -2 -15 2 -3 7 2 10 11 7 17 1 20 -8 4z"/>
<path d="M985 1525 c2 -22 6 -58 9 -80 l6 -40 -11 34 c-5 18 -12 31 -14 29 -5
-5 21 -108 42 -168 20 -55 38 -78 29 -35 -4 17 -20 91 -36 165 -16 74 -28 117
-25 95z"/>
<path d="M3241 1544 c0 -11 3 -14 6 -6 3 7 2 16 -1 19 -3 4 -6 -2 -5 -13z"/>
<path d="M369 1533 c-13 -16 -12 -17 4 -4 9 7 17 15 17 17 0 8 -8 3 -21 -13z"/>
<path d="M335 1484 c-9 -15 -12 -23 -6 -20 11 7 35 46 28 46 -3 0 -12 -12 -22
-26z"/>
<path d="M3410 1458 c42 -95 159 -278 177 -278 3 0 -7 16 -22 36 -30 39 -27
58 5 29 11 -10 20 -16 20 -13 0 5 -183 253 -196 267 -3 3 5 -16 16 -41z m127
-183 c0 -8 -4 -12 -9 -9 -5 3 -6 10 -3 15 9 13 12 11 12 -6z"/>
<path d="M2410 1480 c0 -5 7 -10 15 -10 8 0 15 5 15 10 0 6 -7 10 -15 10 -8 0
-15 -4 -15 -10z"/>
<path d="M3320 1483 c0 -6 4 -23 10 -37 13 -36 4 -32 -20 7 -25 40 -25 34 -1
-34 43 -125 136 -265 214 -321 41 -29 33 -6 -17 48 -25 26 -43 51 -40 56 3 4
1 8 -4 8 -7 0 -24 26 -41 65 -2 6 14 -12 36 -40 50 -63 89 -96 54 -47 -35 49
-19 49 25 -1 37 -41 85 -80 57 -46 -6 8 -32 36 -58 62 -25 27 -67 76 -92 110
-25 34 -50 61 -55 59 -5 -1 -7 2 -3 7 3 6 -3 27 -14 48 -11 21 -20 34 -21 30
0 -5 5 -17 10 -28 6 -10 8 -19 5 -19 -3 0 -15 19 -25 43 -11 23 -20 37 -20 30z"/>
<path d="M4240 1466 c0 -8 4 -17 9 -20 5 -4 7 3 4 14 -6 23 -13 26 -13 6z"/>
<path d="M2300 1451 c0 -5 7 -12 16 -15 14 -5 15 -4 4 9 -14 17 -20 19 -20 6z"/>
<path d="M292 1425 c-11 -13 -23 -21 -27 -17 -5 4 -5 1 -1 -6 4 -7 2 -19 -4
-27 -7 -8 -10 -15 -7 -15 3 0 20 20 37 45 33 48 34 61 2 20z"/>
<path d="M3710 1416 c31 -34 140 -96 166 -95 14 1 13 3 -6 8 -39 12 -83 37
-136 77 -39 29 -44 31 -24 10z"/>
<path d="M4121 1424 c0 -11 3 -14 6 -6 3 7 2 16 -1 19 -3 4 -6 -2 -5 -13z"/>
<path d="M4016 1378 l-18 -33 21 25 c18 22 26 40 18 40 -1 0 -11 -15 -21 -32z"/>
<path d="M1860 1360 c8 -5 20 -10 25 -10 6 0 3 5 -5 10 -8 5 -19 10 -25 10 -5
0 -3 -5 5 -10z"/>
<path d="M4132 1350 c0 -14 2 -19 5 -12 2 6 2 18 0 25 -3 6 -5 1 -5 -13z"/>
<path d="M3959 1303 l-34 -38 38 34 c20 19 37 36 37 38 0 8 -8 0 -41 -34z"/>
<path d="M4132 1250 c0 -19 2 -27 5 -17 2 9 2 25 0 35 -3 9 -5 1 -5 -18z"/>
<path d="M42 1243 c-26 -38 -34 -53 -29 -53 2 0 16 18 31 40 29 45 28 56 -2
13z"/>
<path d="M159 1228 c-12 -18 -29 -39 -37 -45 -9 -8 -11 -13 -4 -13 6 0 25 20
42 45 17 25 29 45 26 45 -2 0 -15 -15 -27 -32z"/>
<path d="M4102 1220 c0 -14 2 -19 5 -12 2 6 2 18 0 25 -3 6 -5 1 -5 -13z"/>
<path d="M4151 1214 c0 -11 3 -14 6 -6 3 7 2 16 -1 19 -3 4 -6 -2 -5 -13z"/>
<path d="M2190 1210 c33 -23 50 -30 50 -22 0 5 -11 14 -25 20 -32 15 -45 15
-25 2z"/>
<path d="M2701 1193 c-22 -18 -22 -18 11 -17 62 2 65 3 44 19 -25 19 -29 19
-55 -2z"/>
<path d="M78 1108 c-19 -29 -43 -66 -53 -83 l-18 -30 26 30 c22 25 28 27 36
15 6 -8 13 -11 18 -6 4 4 0 12 -10 17 -17 10 -17 12 1 37 23 33 44 72 39 72
-2 0 -20 -24 -39 -52z"/>
<path d="M2594 1115 c-4 -8 -10 -13 -14 -10 -4 3 1 -12 11 -32 11 -21 19 -48
19 -61 0 -19 -4 -22 -22 -18 -20 5 -20 4 2 -6 14 -6 54 -27 90 -45 37 -20 54
-26 40 -14 -14 11 -42 28 -62 37 -29 13 -38 23 -38 41 0 13 -6 39 -14 57 -9
22 -10 38 -4 49 5 10 6 17 3 17 -3 0 -8 -7 -11 -15z"/>
<path d="M2410 1115 c0 -8 81 -46 90 -43 4 2 -14 13 -41 25 -27 12 -49 20 -49
18z"/>
<path d="M2360 1108 c0 -7 105 -78 116 -78 8 0 -18 19 -88 65 -16 9 -28 15
-28 13z"/>
<path d="M305 1069 c-87 -44 -115 -59 -115 -65 0 -3 7 -4 15 0 27 10 16 -1
-40 -38 -65 -43 -72 -55 -15 -26 23 11 46 18 52 14 8 -5 9 -2 5 10 -4 10 -3
15 3 11 11 -7 150 80 150 94 0 5 8 12 18 14 11 3 9 5 -8 6 -14 0 -43 -9 -65
-20z"/>
<path d="M4826 1027 c3 -10 9 -15 12 -12 3 3 0 11 -7 18 -10 9 -11 8 -5 -6z"/>
<path d="M715 988 l-40 -43 43 40 c23 21 42 40 42 42 0 8 -9 0 -45 -39z"/>
<path d="M301 983 c-19 -4 -21 -7 -10 -13 11 -7 11 -12 1 -22 -19 -19 -14 -30
11 -22 29 8 57 34 57 51 0 13 -13 14 -59 6z"/>
<path d="M4850 974 c0 -6 7 -19 16 -30 14 -18 14 -18 3 6 -14 31 -19 36 -19
24z"/>
<path d="M639 923 l-24 -28 28 24 c25 23 32 31 24 31 -2 0 -14 -12 -28 -27z"/>
<path d="M4731 894 c0 -11 3 -14 6 -6 3 7 2 16 -1 19 -3 4 -6 -2 -5 -13z"/>
<path d="M4948 891 c-53 -16 -55 -19 -33 -62 l16 -30 31 18 c35 21 41 32 36
65 -3 24 -3 24 -50 9z m10 -53 c-6 -18 -25 -20 -31 -3 -5 10 0 15 14 15 12 0
19 -5 17 -12z"/>
<path d="M589 883 c-13 -16 -12 -17 4 -4 9 7 17 15 17 17 0 8 -8 3 -21 -13z"/>
<path d="M1072 860 c0 -14 2 -19 5 -12 2 6 2 18 0 25 -3 6 -5 1 -5 -13z"/>
<path d="M544 848 l-19 -23 23 19 c21 18 27 26 19 26 -2 0 -12 -10 -23 -22z"/>
<path d="M3818 843 c7 -3 16 -2 19 1 4 3 -2 6 -13 5 -11 0 -14 -3 -6 -6z"/>
<path d="M4741 825 c-2 -27 -3 -28 -12 -10 -6 15 -7 11 -3 -15 11 -63 27 -54
21 11 -2 33 -4 36 -6 14z"/>
<path d="M3768 833 c6 -2 18 -2 25 0 6 3 1 5 -13 5 -14 0 -19 -2 -12 -5z"/>
<path d="M10 815 c-7 -9 -11 -17 -9 -20 3 -2 10 5 17 15 14 24 10 26 -8 5z"/>
<path d="M1082 810 c0 -14 2 -19 5 -12 2 6 2 18 0 25 -3 6 -5 1 -5 -13z"/>
<path d="M1091 754 c0 -11 3 -14 6 -6 3 7 2 16 -1 19 -3 4 -6 -2 -5 -13z"/>
<path d="M1143 715 c0 -27 2 -38 4 -22 2 15 2 37 0 50 -2 12 -4 0 -4 -28z"/>
<path d="M4973 738 c-6 -9 -3 -25 8 -48 10 -19 18 -29 19 -22 0 7 -5 23 -11
35 -9 16 -9 22 0 25 13 4 15 22 2 22 -5 0 -13 -6 -18 -12z"/>
<path d="M320 708 c-30 -17 -57 -34 -60 -37 -3 -3 -25 -20 -50 -36 -52 -35
-56 -38 -90 -66 -14 -11 -18 -17 -10 -13 18 9 251 163 265 175 17 16 1 9 -55
-23z"/>
<path d="M4243 673 c9 -2 25 -2 35 0 9 3 1 5 -18 5 -19 0 -27 -2 -17 -5z"/>
<path d="M1153 615 c0 -27 2 -38 4 -22 2 15 2 37 0 50 -2 12 -4 0 -4 -28z"/>
<path d="M800 590 c-6 -27 -10 -55 -7 -62 2 -7 8 1 12 17 3 17 9 37 12 45 11
27 11 40 3 45 -4 3 -13 -17 -20 -45z"/>
<path d="M825 580 c3 -5 8 -10 11 -10 2 0 4 5 4 10 0 6 -5 10 -11 10 -5 0 -7
-4 -4 -10z"/>
<path d="M4719 568 c12 -15 21 -31 18 -35 -5 -8 143 -77 150 -70 5 5 -96 77
-125 89 -15 7 -36 19 -47 27 -15 12 -14 9 4 -11z m61 -40 c0 -4 -4 -8 -9 -8
-6 0 -12 4 -15 8 -3 5 1 9 9 9 8 0 15 -4 15 -9z"/>
<path d="M1160 526 c0 -19 3 -37 8 -40 4 -2 6 13 4 35 -5 48 -12 51 -12 5z"/>
<path d="M4578 473 c12 -2 32 -2 45 0 12 2 2 4 -23 4 -25 0 -35 -2 -22 -4z"/>
<path d="M901 366 c10 -36 21 -71 25 -78 6 -11 -15 6 -74 60 -12 11 -16 11
-23 0 -8 -12 -13 -4 -10 15 0 4 -3 7 -9 7 -12 0 -12 -2 0 -34 5 -14 17 -26 27
-27 10 0 13 -3 7 -5 -7 -3 -10 -14 -7 -24 8 -30 -39 -37 -73 -11 -28 22 -50
28 -39 11 3 -6 -4 -10 -17 -10 -19 0 -20 2 -8 10 13 9 12 13 -8 30 -20 17 -33
19 -85 14 -86 -9 -117 -23 -52 -24 28 0 60 -3 73 -6 21 -6 22 -8 6 -25 -15
-16 -15 -17 3 -13 11 3 49 -8 85 -25 36 -17 70 -31 76 -31 7 0 12 -4 12 -10 0
-5 -8 -6 -17 -3 -15 6 -14 2 4 -22 20 -29 24 -30 112 -32 50 -1 93 2 96 7 3 5
-6 38 -20 73 -14 35 -25 70 -25 77 0 7 -3 10 -7 6 -8 -8 -45 82 -38 93 2 5 -4
16 -14 25 -18 16 -18 15 0 -48z m-36 -136 c-3 -5 -12 -7 -20 -3 -21 7 -19 13
6 13 11 0 18 -4 14 -10z"/>
<path d="M3688 413 c7 -3 16 -2 19 1 4 3 -2 6 -13 5 -11 0 -14 -3 -6 -6z"/>
<path d="M4018 413 c7 -3 16 -2 19 1 4 3 -2 6 -13 5 -11 0 -14 -3 -6 -6z"/>
<path d="M3633 383 c9 -2 25 -2 35 0 9 3 1 5 -18 5 -19 0 -27 -2 -17 -5z"/>
<path d="M1182 350 c0 -19 2 -27 5 -17 2 9 2 25 0 35 -3 9 -5 1 -5 -18z"/>
<path d="M4758 343 c12 -2 30 -2 40 0 9 3 -1 5 -23 4 -22 0 -30 -2 -17 -4z"/>
<path d="M1405 309 c9 -17 48 -63 86 -102 l70 -72 -82 103 c-45 56 -83 102
-86 102 -2 0 4 -14 12 -31z"/>
<path d="M4873 333 c15 -2 39 -2 55 0 15 2 2 4 -28 4 -30 0 -43 -2 -27 -4z"/>
<path d="M4968 323 c6 -2 18 -2 25 0 6 3 1 5 -13 5 -14 0 -19 -2 -12 -5z"/>
<path d="M1191 273 c0 -12 -9 -24 -18 -26 -17 -4 -17 -5 0 -6 15 -1 16 -5 7
-21 -6 -11 -15 -18 -19 -15 -5 2 -11 -5 -14 -17 -5 -16 3 -30 28 -54 24 -22
35 -42 35 -61 0 -53 10 -73 36 -71 29 3 29 5 4 43 -24 36 -27 67 -5 59 19 -8
47 15 38 30 -4 6 -8 13 -9 16 0 3 -4 18 -9 33 -7 27 -8 27 -28 10 -20 -18 -20
-18 -3 15 19 37 15 52 -13 45 -14 -4 -21 1 -24 19 -4 22 -4 22 -6 1z"/>
<path d="M1760 277 c0 -3 31 -28 69 -56 65 -49 113 -107 155 -188 18 -35 30
-45 19 -15 -31 82 -91 157 -170 213 -40 27 -73 48 -73 46z"/>
<path d="M360 266 c0 -2 18 -15 39 -29 22 -15 50 -37 63 -50 30 -31 109 -79
89 -54 -11 14 -11 17 0 17 21 1 -26 34 -109 80 -72 39 -82 44 -82 36z"/>
<path d="M1355 250 c-3 -5 -1 -10 4 -10 6 0 11 5 11 10 0 6 -2 10 -4 10 -3 0
-8 -4 -11 -10z"/>
<path d="M1521 257 c-1 -4 13 -34 29 -67 17 -33 30 -66 30 -73 0 -7 11 -24 25
-37 14 -13 25 -32 25 -42 0 -20 21 -33 42 -26 8 3 -1 18 -25 43 -21 21 -58 77
-82 124 -24 47 -44 82 -44 78z"/>
<path d="M670 205 c13 -14 26 -25 28 -25 3 0 -5 11 -18 25 -13 14 -26 25 -28
25 -3 0 5 -11 18 -25z"/>
<path d="M588 213 c7 -3 16 -2 19 1 4 3 -2 6 -13 5 -11 0 -14 -3 -6 -6z"/>
<path d="M3968 213 c46 -2 118 -2 160 0 42 1 5 3 -83 3 -88 0 -123 -2 -77 -3z"/>
<path d="M3808 203 c12 -2 32 -2 45 0 12 2 2 4 -23 4 -25 0 -35 -2 -22 -4z"/>
<path d="M1740 175 c0 -5 5 -17 10 -25 5 -8 10 -10 10 -5 0 6 -5 17 -10 25 -5
8 -10 11 -10 5z"/>
<path d="M3695 165 c-25 -12 -26 -14 -5 -9 14 4 29 10 35 15 12 12 5 11 -30
-6z"/>
<path d="M65 144 c-55 -20 -60 -24 -63 -54 -2 -20 2 -36 10 -41 22 -15 29 -10
17 12 -10 20 -9 21 33 14 23 -4 79 -21 123 -37 44 -17 97 -32 118 -35 37 -5
38 -4 28 15 -14 27 -75 74 -148 115 l-59 34 -59 -23z"/>
<path d="M2899 143 c-13 -16 -12 -17 4 -4 16 13 21 21 13 21 -2 0 -10 -8 -17
-17z"/>
<path d="M2645 140 c-3 -5 -1 -10 4 -10 6 0 11 -6 11 -14 0 -8 4 -17 9 -20 4
-3 6 6 3 19 -5 29 -18 40 -27 25z"/>
<path d="M2940 135 c-17 -10 -20 -14 -9 -15 9 0 22 7 29 15 15 18 12 18 -20 0z"/>
<path d="M1760 123 c0 -5 5 -15 10 -23 7 -12 9 -10 7 8 -1 19 -17 33 -17 15z"/>
<path d="M3515 90 c-62 -29 -61 -41 1 -15 38 16 84 45 69 44 -6 0 -37 -13 -70
-29z"/>
<path d="M580 100 c0 -5 5 -10 11 -10 5 0 7 5 4 10 -3 6 -8 10 -11 10 -2 0 -4
-4 -4 -10z"/>
<path d="M2831 61 c-23 -27 -41 -53 -41 -57 0 -5 7 2 16 14 8 12 19 20 23 17
5 -2 19 8 32 23 13 15 17 21 9 15 -26 -23 -34 -13 -10 12 13 14 21 25 18 25
-4 0 -25 -22 -47 -49z"/>
<path d="M2899 93 c-13 -16 -12 -17 4 -4 16 13 21 21 13 21 -2 0 -10 -8 -17
-17z"/>
<path d="M1859 87 c6 -8 8 -17 4 -21 -4 -4 1 -4 12 0 14 6 17 4 12 -8 -3 -9 2
-26 12 -37 20 -23 47 -29 34 -8 -4 6 -8 17 -8 24 0 7 -15 24 -34 38 -39 28
-49 32 -32 12z m58 -43 c-3 -3 -12 -4 -19 -1 -8 3 -5 6 6 6 11 1 17 -2 13 -5z"/>
<path d="M1780 77 c0 -12 28 -77 34 -77 4 0 0 31 -4 38 -2 1 -3 6 -4 11 -1 12
-26 38 -26 28z"/>
<path d="M639 57 c15 -19 71 -61 71 -54 0 2 -19 19 -42 37 -24 19 -37 26 -29
17z"/>
<path d="M2673 22 c-8 -14 -8 -19 1 -19 7 0 13 9 13 19 2 23 1 23 -14 0z"/>
<path d="M166 15 c4 -8 13 -15 21 -15 13 0 13 3 3 15 -16 19 -31 19 -24 0z"/>
<path d="M1950 12 c0 -5 7 -9 15 -9 8 0 12 4 9 9 -3 4 -9 8 -15 8 -5 0 -9 -4
-9 -8z"/>
<path d="M4148 3 c17 -2 47 -2 65 0 17 2 3 4 -33 4 -36 0 -50 -2 -32 -4z"/>
<path d="M4473 3 c15 -2 37 -2 50 0 12 2 0 4 -28 4 -27 0 -38 -2 -22 -4z"/>
</g>
</svg>
